<mxfile host="app.diagrams.net" agent="Mozilla/5.0 (Windows NT 10.0; Win64; x64) AppleWebKit/537.36 (KHTML, like Gecko) Chrome/131.0.0.0 Safari/537.36" version="25.0.1" pages="2">
  <diagram name="InvioOfferta" id="PwwmJ5NGy3_vmTiixFz0">
    <mxGraphModel dx="2300" dy="998" grid="1" gridSize="10" guides="1" tooltips="1" connect="1" arrows="1" fold="1" page="1" pageScale="1" pageWidth="827" pageHeight="1169" math="0" shadow="0">
      <root>
        <mxCell id="0" />
        <mxCell id="1" parent="0" />
        <mxCell id="OHDVKGtbjxheF6xRG5eF-1" value="" style="shape=table;startSize=0;container=1;collapsible=0;childLayout=tableLayout;" vertex="1" parent="1">
          <mxGeometry x="120" y="60" width="560" height="936.0000000000001" as="geometry" />
        </mxCell>
        <mxCell id="OHDVKGtbjxheF6xRG5eF-5" value="" style="shape=tableRow;horizontal=0;startSize=0;swimlaneHead=0;swimlaneBody=0;strokeColor=inherit;top=0;left=0;bottom=0;right=0;collapsible=0;dropTarget=0;fillColor=none;points=[[0,0.5],[1,0.5]];portConstraint=eastwest;" vertex="1" parent="OHDVKGtbjxheF6xRG5eF-1">
          <mxGeometry width="560" height="57" as="geometry" />
        </mxCell>
        <mxCell id="OHDVKGtbjxheF6xRG5eF-6" value="" style="shape=partialRectangle;html=1;whiteSpace=wrap;connectable=0;strokeColor=inherit;overflow=hidden;fillColor=none;top=0;left=0;bottom=0;right=0;pointerEvents=1;" vertex="1" parent="OHDVKGtbjxheF6xRG5eF-5">
          <mxGeometry width="140" height="57" as="geometry">
            <mxRectangle width="140" height="57" as="alternateBounds" />
          </mxGeometry>
        </mxCell>
        <mxCell id="OHDVKGtbjxheF6xRG5eF-7" value="" style="shape=partialRectangle;html=1;whiteSpace=wrap;connectable=0;strokeColor=inherit;overflow=hidden;fillColor=none;top=0;left=0;bottom=0;right=0;pointerEvents=1;" vertex="1" parent="OHDVKGtbjxheF6xRG5eF-5">
          <mxGeometry x="140" width="420" height="57" as="geometry">
            <mxRectangle width="420" height="57" as="alternateBounds" />
          </mxGeometry>
        </mxCell>
        <mxCell id="OHDVKGtbjxheF6xRG5eF-2" value="" style="shape=tableRow;horizontal=0;startSize=0;swimlaneHead=0;swimlaneBody=0;strokeColor=inherit;top=0;left=0;bottom=0;right=0;collapsible=0;dropTarget=0;fillColor=none;points=[[0,0.5],[1,0.5]];portConstraint=eastwest;" vertex="1" parent="OHDVKGtbjxheF6xRG5eF-1">
          <mxGeometry y="57" width="560" height="57" as="geometry" />
        </mxCell>
        <mxCell id="OHDVKGtbjxheF6xRG5eF-3" value="" style="shape=partialRectangle;html=1;whiteSpace=wrap;connectable=0;strokeColor=inherit;overflow=hidden;fillColor=none;top=0;left=0;bottom=0;right=0;pointerEvents=1;" vertex="1" parent="OHDVKGtbjxheF6xRG5eF-2">
          <mxGeometry width="140" height="57" as="geometry">
            <mxRectangle width="140" height="57" as="alternateBounds" />
          </mxGeometry>
        </mxCell>
        <mxCell id="OHDVKGtbjxheF6xRG5eF-4" value="" style="shape=partialRectangle;html=1;whiteSpace=wrap;connectable=0;strokeColor=inherit;overflow=hidden;fillColor=none;top=0;left=0;bottom=0;right=0;pointerEvents=1;" vertex="1" parent="OHDVKGtbjxheF6xRG5eF-2">
          <mxGeometry x="140" width="420" height="57" as="geometry">
            <mxRectangle width="420" height="57" as="alternateBounds" />
          </mxGeometry>
        </mxCell>
        <mxCell id="OHDVKGtbjxheF6xRG5eF-8" value="" style="shape=tableRow;horizontal=0;startSize=0;swimlaneHead=0;swimlaneBody=0;strokeColor=inherit;top=0;left=0;bottom=0;right=0;collapsible=0;dropTarget=0;fillColor=none;points=[[0,0.5],[1,0.5]];portConstraint=eastwest;" vertex="1" parent="OHDVKGtbjxheF6xRG5eF-1">
          <mxGeometry y="114" width="560" height="57" as="geometry" />
        </mxCell>
        <mxCell id="OHDVKGtbjxheF6xRG5eF-9" value="" style="shape=partialRectangle;html=1;whiteSpace=wrap;connectable=0;strokeColor=inherit;overflow=hidden;fillColor=none;top=0;left=0;bottom=0;right=0;pointerEvents=1;" vertex="1" parent="OHDVKGtbjxheF6xRG5eF-8">
          <mxGeometry width="140" height="57" as="geometry">
            <mxRectangle width="140" height="57" as="alternateBounds" />
          </mxGeometry>
        </mxCell>
        <mxCell id="OHDVKGtbjxheF6xRG5eF-10" value="" style="shape=partialRectangle;html=1;whiteSpace=wrap;connectable=0;strokeColor=inherit;overflow=hidden;fillColor=none;top=0;left=0;bottom=0;right=0;pointerEvents=1;" vertex="1" parent="OHDVKGtbjxheF6xRG5eF-8">
          <mxGeometry x="140" width="420" height="57" as="geometry">
            <mxRectangle width="420" height="57" as="alternateBounds" />
          </mxGeometry>
        </mxCell>
        <mxCell id="OHDVKGtbjxheF6xRG5eF-11" value="" style="shape=tableRow;horizontal=0;startSize=0;swimlaneHead=0;swimlaneBody=0;strokeColor=inherit;top=0;left=0;bottom=0;right=0;collapsible=0;dropTarget=0;fillColor=none;points=[[0,0.5],[1,0.5]];portConstraint=eastwest;" vertex="1" parent="OHDVKGtbjxheF6xRG5eF-1">
          <mxGeometry y="171" width="560" height="57" as="geometry" />
        </mxCell>
        <mxCell id="OHDVKGtbjxheF6xRG5eF-12" value="" style="shape=partialRectangle;html=1;whiteSpace=wrap;connectable=0;strokeColor=inherit;overflow=hidden;fillColor=none;top=0;left=0;bottom=0;right=0;pointerEvents=1;" vertex="1" parent="OHDVKGtbjxheF6xRG5eF-11">
          <mxGeometry width="140" height="57" as="geometry">
            <mxRectangle width="140" height="57" as="alternateBounds" />
          </mxGeometry>
        </mxCell>
        <mxCell id="OHDVKGtbjxheF6xRG5eF-13" value="" style="shape=partialRectangle;html=1;whiteSpace=wrap;connectable=0;strokeColor=inherit;overflow=hidden;fillColor=none;top=0;left=0;bottom=0;right=0;pointerEvents=1;" vertex="1" parent="OHDVKGtbjxheF6xRG5eF-11">
          <mxGeometry x="140" width="420" height="57" as="geometry">
            <mxRectangle width="420" height="57" as="alternateBounds" />
          </mxGeometry>
        </mxCell>
        <mxCell id="OHDVKGtbjxheF6xRG5eF-14" value="" style="shape=tableRow;horizontal=0;startSize=0;swimlaneHead=0;swimlaneBody=0;strokeColor=inherit;top=0;left=0;bottom=0;right=0;collapsible=0;dropTarget=0;fillColor=none;points=[[0,0.5],[1,0.5]];portConstraint=eastwest;" vertex="1" parent="OHDVKGtbjxheF6xRG5eF-1">
          <mxGeometry y="228" width="560" height="58" as="geometry" />
        </mxCell>
        <mxCell id="OHDVKGtbjxheF6xRG5eF-15" value="" style="shape=partialRectangle;html=1;whiteSpace=wrap;connectable=0;strokeColor=inherit;overflow=hidden;fillColor=none;top=0;left=0;bottom=0;right=0;pointerEvents=1;" vertex="1" parent="OHDVKGtbjxheF6xRG5eF-14">
          <mxGeometry width="140" height="58" as="geometry">
            <mxRectangle width="140" height="58" as="alternateBounds" />
          </mxGeometry>
        </mxCell>
        <mxCell id="OHDVKGtbjxheF6xRG5eF-16" value="" style="shape=partialRectangle;html=1;whiteSpace=wrap;connectable=0;strokeColor=inherit;overflow=hidden;fillColor=none;top=0;left=0;bottom=0;right=0;pointerEvents=1;" vertex="1" parent="OHDVKGtbjxheF6xRG5eF-14">
          <mxGeometry x="140" width="420" height="58" as="geometry">
            <mxRectangle width="420" height="58" as="alternateBounds" />
          </mxGeometry>
        </mxCell>
        <mxCell id="OHDVKGtbjxheF6xRG5eF-17" value="" style="shape=tableRow;horizontal=0;startSize=0;swimlaneHead=0;swimlaneBody=0;strokeColor=inherit;top=0;left=0;bottom=0;right=0;collapsible=0;dropTarget=0;fillColor=none;points=[[0,0.5],[1,0.5]];portConstraint=eastwest;" vertex="1" parent="OHDVKGtbjxheF6xRG5eF-1">
          <mxGeometry y="286" width="560" height="57" as="geometry" />
        </mxCell>
        <mxCell id="OHDVKGtbjxheF6xRG5eF-18" value="" style="shape=partialRectangle;html=1;whiteSpace=wrap;connectable=0;strokeColor=inherit;overflow=hidden;fillColor=none;top=0;left=0;bottom=0;right=0;pointerEvents=1;" vertex="1" parent="OHDVKGtbjxheF6xRG5eF-17">
          <mxGeometry width="140" height="57" as="geometry">
            <mxRectangle width="140" height="57" as="alternateBounds" />
          </mxGeometry>
        </mxCell>
        <mxCell id="OHDVKGtbjxheF6xRG5eF-19" value="" style="shape=partialRectangle;html=1;whiteSpace=wrap;connectable=0;strokeColor=inherit;overflow=hidden;fillColor=none;top=0;left=0;bottom=0;right=0;pointerEvents=1;" vertex="1" parent="OHDVKGtbjxheF6xRG5eF-17">
          <mxGeometry x="140" width="420" height="57" as="geometry">
            <mxRectangle width="420" height="57" as="alternateBounds" />
          </mxGeometry>
        </mxCell>
        <mxCell id="OHDVKGtbjxheF6xRG5eF-20" value="" style="shape=tableRow;horizontal=0;startSize=0;swimlaneHead=0;swimlaneBody=0;strokeColor=inherit;top=0;left=0;bottom=0;right=0;collapsible=0;dropTarget=0;fillColor=none;points=[[0,0.5],[1,0.5]];portConstraint=eastwest;" vertex="1" parent="OHDVKGtbjxheF6xRG5eF-1">
          <mxGeometry y="343" width="560" height="57" as="geometry" />
        </mxCell>
        <mxCell id="OHDVKGtbjxheF6xRG5eF-21" value="" style="shape=partialRectangle;html=1;whiteSpace=wrap;connectable=0;strokeColor=inherit;overflow=hidden;fillColor=none;top=0;left=0;bottom=0;right=0;pointerEvents=1;" vertex="1" parent="OHDVKGtbjxheF6xRG5eF-20">
          <mxGeometry width="140" height="57" as="geometry">
            <mxRectangle width="140" height="57" as="alternateBounds" />
          </mxGeometry>
        </mxCell>
        <mxCell id="OHDVKGtbjxheF6xRG5eF-22" value="" style="shape=partialRectangle;html=1;whiteSpace=wrap;connectable=0;strokeColor=inherit;overflow=hidden;fillColor=none;top=0;left=0;bottom=0;right=0;pointerEvents=1;" vertex="1" parent="OHDVKGtbjxheF6xRG5eF-20">
          <mxGeometry x="140" width="420" height="57" as="geometry">
            <mxRectangle width="420" height="57" as="alternateBounds" />
          </mxGeometry>
        </mxCell>
        <mxCell id="OHDVKGtbjxheF6xRG5eF-23" value="" style="shape=tableRow;horizontal=0;startSize=0;swimlaneHead=0;swimlaneBody=0;strokeColor=inherit;top=0;left=0;bottom=0;right=0;collapsible=0;dropTarget=0;fillColor=none;points=[[0,0.5],[1,0.5]];portConstraint=eastwest;" vertex="1" parent="OHDVKGtbjxheF6xRG5eF-1">
          <mxGeometry y="400" width="560" height="330" as="geometry" />
        </mxCell>
        <mxCell id="OHDVKGtbjxheF6xRG5eF-24" value="" style="shape=partialRectangle;html=1;whiteSpace=wrap;connectable=0;strokeColor=inherit;overflow=hidden;fillColor=none;top=0;left=0;bottom=0;right=0;pointerEvents=1;" vertex="1" parent="OHDVKGtbjxheF6xRG5eF-23">
          <mxGeometry width="140" height="330" as="geometry">
            <mxRectangle width="140" height="330" as="alternateBounds" />
          </mxGeometry>
        </mxCell>
        <mxCell id="OHDVKGtbjxheF6xRG5eF-25" value="" style="shape=partialRectangle;html=1;whiteSpace=wrap;connectable=0;strokeColor=inherit;overflow=hidden;fillColor=none;top=0;left=0;bottom=0;right=0;pointerEvents=1;" vertex="1" parent="OHDVKGtbjxheF6xRG5eF-23">
          <mxGeometry x="140" width="420" height="330" as="geometry">
            <mxRectangle width="420" height="330" as="alternateBounds" />
          </mxGeometry>
        </mxCell>
        <mxCell id="OHDVKGtbjxheF6xRG5eF-138" value="" style="shape=tableRow;horizontal=0;startSize=0;swimlaneHead=0;swimlaneBody=0;strokeColor=inherit;top=0;left=0;bottom=0;right=0;collapsible=0;dropTarget=0;fillColor=none;points=[[0,0.5],[1,0.5]];portConstraint=eastwest;" vertex="1" parent="OHDVKGtbjxheF6xRG5eF-1">
          <mxGeometry y="730" width="560" height="90" as="geometry" />
        </mxCell>
        <mxCell id="OHDVKGtbjxheF6xRG5eF-139" value="" style="shape=partialRectangle;html=1;whiteSpace=wrap;connectable=0;strokeColor=inherit;overflow=hidden;fillColor=none;top=0;left=0;bottom=0;right=0;pointerEvents=1;" vertex="1" parent="OHDVKGtbjxheF6xRG5eF-138">
          <mxGeometry width="140" height="90" as="geometry">
            <mxRectangle width="140" height="90" as="alternateBounds" />
          </mxGeometry>
        </mxCell>
        <mxCell id="OHDVKGtbjxheF6xRG5eF-140" value="" style="shape=partialRectangle;html=1;whiteSpace=wrap;connectable=0;strokeColor=inherit;overflow=hidden;fillColor=none;top=0;left=0;bottom=0;right=0;pointerEvents=1;" vertex="1" parent="OHDVKGtbjxheF6xRG5eF-138">
          <mxGeometry x="140" width="420" height="90" as="geometry">
            <mxRectangle width="420" height="90" as="alternateBounds" />
          </mxGeometry>
        </mxCell>
        <mxCell id="OHDVKGtbjxheF6xRG5eF-26" value="" style="shape=tableRow;horizontal=0;startSize=0;swimlaneHead=0;swimlaneBody=0;strokeColor=inherit;top=0;left=0;bottom=0;right=0;collapsible=0;dropTarget=0;fillColor=none;points=[[0,0.5],[1,0.5]];portConstraint=eastwest;" vertex="1" parent="OHDVKGtbjxheF6xRG5eF-1">
          <mxGeometry y="820" width="560" height="116" as="geometry" />
        </mxCell>
        <mxCell id="OHDVKGtbjxheF6xRG5eF-27" value="" style="shape=partialRectangle;html=1;whiteSpace=wrap;connectable=0;strokeColor=inherit;overflow=hidden;fillColor=none;top=0;left=0;bottom=0;right=0;pointerEvents=1;" vertex="1" parent="OHDVKGtbjxheF6xRG5eF-26">
          <mxGeometry width="140" height="116" as="geometry">
            <mxRectangle width="140" height="116" as="alternateBounds" />
          </mxGeometry>
        </mxCell>
        <mxCell id="OHDVKGtbjxheF6xRG5eF-28" value="" style="shape=partialRectangle;html=1;whiteSpace=wrap;connectable=0;strokeColor=inherit;overflow=hidden;fillColor=none;top=0;left=0;bottom=0;right=0;pointerEvents=1;" vertex="1" parent="OHDVKGtbjxheF6xRG5eF-26">
          <mxGeometry x="140" width="420" height="116" as="geometry">
            <mxRectangle width="420" height="116" as="alternateBounds" />
          </mxGeometry>
        </mxCell>
        <mxCell id="OHDVKGtbjxheF6xRG5eF-61" value="" style="shape=table;startSize=0;container=1;collapsible=0;childLayout=tableLayout;" vertex="1" parent="1">
          <mxGeometry x="260" y="460" width="420" height="330" as="geometry" />
        </mxCell>
        <mxCell id="OHDVKGtbjxheF6xRG5eF-62" value="" style="shape=tableRow;horizontal=0;startSize=0;swimlaneHead=0;swimlaneBody=0;strokeColor=inherit;top=0;left=0;bottom=0;right=0;collapsible=0;dropTarget=0;fillColor=none;points=[[0,0.5],[1,0.5]];portConstraint=eastwest;" vertex="1" parent="OHDVKGtbjxheF6xRG5eF-61">
          <mxGeometry width="420" height="41" as="geometry" />
        </mxCell>
        <mxCell id="OHDVKGtbjxheF6xRG5eF-63" value="" style="shape=partialRectangle;html=1;whiteSpace=wrap;connectable=0;strokeColor=inherit;overflow=hidden;fillColor=none;top=0;left=0;bottom=0;right=0;pointerEvents=1;" vertex="1" parent="OHDVKGtbjxheF6xRG5eF-62">
          <mxGeometry width="70" height="41" as="geometry">
            <mxRectangle width="70" height="41" as="alternateBounds" />
          </mxGeometry>
        </mxCell>
        <mxCell id="OHDVKGtbjxheF6xRG5eF-64" value="" style="shape=partialRectangle;html=1;whiteSpace=wrap;connectable=0;strokeColor=inherit;overflow=hidden;fillColor=none;top=0;left=0;bottom=0;right=0;pointerEvents=1;" vertex="1" parent="OHDVKGtbjxheF6xRG5eF-62">
          <mxGeometry x="70" width="180" height="41" as="geometry">
            <mxRectangle width="180" height="41" as="alternateBounds" />
          </mxGeometry>
        </mxCell>
        <mxCell id="OHDVKGtbjxheF6xRG5eF-65" value="" style="shape=partialRectangle;html=1;whiteSpace=wrap;connectable=0;strokeColor=inherit;overflow=hidden;fillColor=none;top=0;left=0;bottom=0;right=0;pointerEvents=1;" vertex="1" parent="OHDVKGtbjxheF6xRG5eF-62">
          <mxGeometry x="250" width="170" height="41" as="geometry">
            <mxRectangle width="170" height="41" as="alternateBounds" />
          </mxGeometry>
        </mxCell>
        <mxCell id="OHDVKGtbjxheF6xRG5eF-66" value="" style="shape=tableRow;horizontal=0;startSize=0;swimlaneHead=0;swimlaneBody=0;strokeColor=inherit;top=0;left=0;bottom=0;right=0;collapsible=0;dropTarget=0;fillColor=none;points=[[0,0.5],[1,0.5]];portConstraint=eastwest;" vertex="1" parent="OHDVKGtbjxheF6xRG5eF-61">
          <mxGeometry y="41" width="420" height="43" as="geometry" />
        </mxCell>
        <mxCell id="OHDVKGtbjxheF6xRG5eF-67" value="" style="shape=partialRectangle;html=1;whiteSpace=wrap;connectable=0;strokeColor=inherit;overflow=hidden;fillColor=none;top=0;left=0;bottom=0;right=0;pointerEvents=1;" vertex="1" parent="OHDVKGtbjxheF6xRG5eF-66">
          <mxGeometry width="70" height="43" as="geometry">
            <mxRectangle width="70" height="43" as="alternateBounds" />
          </mxGeometry>
        </mxCell>
        <mxCell id="OHDVKGtbjxheF6xRG5eF-68" value="" style="shape=partialRectangle;html=1;whiteSpace=wrap;connectable=0;strokeColor=inherit;overflow=hidden;fillColor=none;top=0;left=0;bottom=0;right=0;pointerEvents=1;" vertex="1" parent="OHDVKGtbjxheF6xRG5eF-66">
          <mxGeometry x="70" width="180" height="43" as="geometry">
            <mxRectangle width="180" height="43" as="alternateBounds" />
          </mxGeometry>
        </mxCell>
        <mxCell id="OHDVKGtbjxheF6xRG5eF-69" value="" style="shape=partialRectangle;html=1;whiteSpace=wrap;connectable=0;strokeColor=inherit;overflow=hidden;fillColor=none;top=0;left=0;bottom=0;right=0;pointerEvents=1;" vertex="1" parent="OHDVKGtbjxheF6xRG5eF-66">
          <mxGeometry x="250" width="170" height="43" as="geometry">
            <mxRectangle width="170" height="43" as="alternateBounds" />
          </mxGeometry>
        </mxCell>
        <mxCell id="OHDVKGtbjxheF6xRG5eF-70" value="" style="shape=tableRow;horizontal=0;startSize=0;swimlaneHead=0;swimlaneBody=0;strokeColor=inherit;top=0;left=0;bottom=0;right=0;collapsible=0;dropTarget=0;fillColor=none;points=[[0,0.5],[1,0.5]];portConstraint=eastwest;" vertex="1" parent="OHDVKGtbjxheF6xRG5eF-61">
          <mxGeometry y="84" width="420" height="40" as="geometry" />
        </mxCell>
        <mxCell id="OHDVKGtbjxheF6xRG5eF-71" value="" style="shape=partialRectangle;html=1;whiteSpace=wrap;connectable=0;strokeColor=inherit;overflow=hidden;fillColor=none;top=0;left=0;bottom=0;right=0;pointerEvents=1;" vertex="1" parent="OHDVKGtbjxheF6xRG5eF-70">
          <mxGeometry width="70" height="40" as="geometry">
            <mxRectangle width="70" height="40" as="alternateBounds" />
          </mxGeometry>
        </mxCell>
        <mxCell id="OHDVKGtbjxheF6xRG5eF-72" value="" style="shape=partialRectangle;html=1;whiteSpace=wrap;connectable=0;strokeColor=inherit;overflow=hidden;fillColor=none;top=0;left=0;bottom=0;right=0;pointerEvents=1;" vertex="1" parent="OHDVKGtbjxheF6xRG5eF-70">
          <mxGeometry x="70" width="180" height="40" as="geometry">
            <mxRectangle width="180" height="40" as="alternateBounds" />
          </mxGeometry>
        </mxCell>
        <mxCell id="OHDVKGtbjxheF6xRG5eF-73" value="" style="shape=partialRectangle;html=1;whiteSpace=wrap;connectable=0;strokeColor=inherit;overflow=hidden;fillColor=none;top=0;left=0;bottom=0;right=0;pointerEvents=1;" vertex="1" parent="OHDVKGtbjxheF6xRG5eF-70">
          <mxGeometry x="250" width="170" height="40" as="geometry">
            <mxRectangle width="170" height="40" as="alternateBounds" />
          </mxGeometry>
        </mxCell>
        <mxCell id="OHDVKGtbjxheF6xRG5eF-74" value="" style="shape=tableRow;horizontal=0;startSize=0;swimlaneHead=0;swimlaneBody=0;strokeColor=inherit;top=0;left=0;bottom=0;right=0;collapsible=0;dropTarget=0;fillColor=none;points=[[0,0.5],[1,0.5]];portConstraint=eastwest;" vertex="1" parent="OHDVKGtbjxheF6xRG5eF-61">
          <mxGeometry y="124" width="420" height="41" as="geometry" />
        </mxCell>
        <mxCell id="OHDVKGtbjxheF6xRG5eF-75" value="" style="shape=partialRectangle;html=1;whiteSpace=wrap;connectable=0;strokeColor=inherit;overflow=hidden;fillColor=none;top=0;left=0;bottom=0;right=0;pointerEvents=1;" vertex="1" parent="OHDVKGtbjxheF6xRG5eF-74">
          <mxGeometry width="70" height="41" as="geometry">
            <mxRectangle width="70" height="41" as="alternateBounds" />
          </mxGeometry>
        </mxCell>
        <mxCell id="OHDVKGtbjxheF6xRG5eF-76" value="" style="shape=partialRectangle;html=1;whiteSpace=wrap;connectable=0;strokeColor=inherit;overflow=hidden;fillColor=none;top=0;left=0;bottom=0;right=0;pointerEvents=1;" vertex="1" parent="OHDVKGtbjxheF6xRG5eF-74">
          <mxGeometry x="70" width="180" height="41" as="geometry">
            <mxRectangle width="180" height="41" as="alternateBounds" />
          </mxGeometry>
        </mxCell>
        <mxCell id="OHDVKGtbjxheF6xRG5eF-77" value="" style="shape=partialRectangle;html=1;whiteSpace=wrap;connectable=0;strokeColor=inherit;overflow=hidden;fillColor=none;top=0;left=0;bottom=0;right=0;pointerEvents=1;" vertex="1" parent="OHDVKGtbjxheF6xRG5eF-74">
          <mxGeometry x="250" width="170" height="41" as="geometry">
            <mxRectangle width="170" height="41" as="alternateBounds" />
          </mxGeometry>
        </mxCell>
        <mxCell id="OHDVKGtbjxheF6xRG5eF-78" value="" style="shape=tableRow;horizontal=0;startSize=0;swimlaneHead=0;swimlaneBody=0;strokeColor=inherit;top=0;left=0;bottom=0;right=0;collapsible=0;dropTarget=0;fillColor=none;points=[[0,0.5],[1,0.5]];portConstraint=eastwest;" vertex="1" parent="OHDVKGtbjxheF6xRG5eF-61">
          <mxGeometry y="165" width="420" height="41" as="geometry" />
        </mxCell>
        <mxCell id="OHDVKGtbjxheF6xRG5eF-79" value="" style="shape=partialRectangle;html=1;whiteSpace=wrap;connectable=0;strokeColor=inherit;overflow=hidden;fillColor=none;top=0;left=0;bottom=0;right=0;pointerEvents=1;" vertex="1" parent="OHDVKGtbjxheF6xRG5eF-78">
          <mxGeometry width="70" height="41" as="geometry">
            <mxRectangle width="70" height="41" as="alternateBounds" />
          </mxGeometry>
        </mxCell>
        <mxCell id="OHDVKGtbjxheF6xRG5eF-80" value="" style="shape=partialRectangle;html=1;whiteSpace=wrap;connectable=0;strokeColor=inherit;overflow=hidden;fillColor=none;top=0;left=0;bottom=0;right=0;pointerEvents=1;" vertex="1" parent="OHDVKGtbjxheF6xRG5eF-78">
          <mxGeometry x="70" width="180" height="41" as="geometry">
            <mxRectangle width="180" height="41" as="alternateBounds" />
          </mxGeometry>
        </mxCell>
        <mxCell id="OHDVKGtbjxheF6xRG5eF-81" value="" style="shape=partialRectangle;html=1;whiteSpace=wrap;connectable=0;strokeColor=inherit;overflow=hidden;fillColor=none;top=0;left=0;bottom=0;right=0;pointerEvents=1;" vertex="1" parent="OHDVKGtbjxheF6xRG5eF-78">
          <mxGeometry x="250" width="170" height="41" as="geometry">
            <mxRectangle width="170" height="41" as="alternateBounds" />
          </mxGeometry>
        </mxCell>
        <mxCell id="OHDVKGtbjxheF6xRG5eF-82" value="" style="shape=tableRow;horizontal=0;startSize=0;swimlaneHead=0;swimlaneBody=0;strokeColor=inherit;top=0;left=0;bottom=0;right=0;collapsible=0;dropTarget=0;fillColor=none;points=[[0,0.5],[1,0.5]];portConstraint=eastwest;" vertex="1" parent="OHDVKGtbjxheF6xRG5eF-61">
          <mxGeometry y="206" width="420" height="43" as="geometry" />
        </mxCell>
        <mxCell id="OHDVKGtbjxheF6xRG5eF-83" value="" style="shape=partialRectangle;html=1;whiteSpace=wrap;connectable=0;strokeColor=inherit;overflow=hidden;fillColor=none;top=0;left=0;bottom=0;right=0;pointerEvents=1;" vertex="1" parent="OHDVKGtbjxheF6xRG5eF-82">
          <mxGeometry width="70" height="43" as="geometry">
            <mxRectangle width="70" height="43" as="alternateBounds" />
          </mxGeometry>
        </mxCell>
        <mxCell id="OHDVKGtbjxheF6xRG5eF-84" value="" style="shape=partialRectangle;html=1;whiteSpace=wrap;connectable=0;strokeColor=inherit;overflow=hidden;fillColor=none;top=0;left=0;bottom=0;right=0;pointerEvents=1;" vertex="1" parent="OHDVKGtbjxheF6xRG5eF-82">
          <mxGeometry x="70" width="180" height="43" as="geometry">
            <mxRectangle width="180" height="43" as="alternateBounds" />
          </mxGeometry>
        </mxCell>
        <mxCell id="OHDVKGtbjxheF6xRG5eF-85" value="" style="shape=partialRectangle;html=1;whiteSpace=wrap;connectable=0;strokeColor=inherit;overflow=hidden;fillColor=none;top=0;left=0;bottom=0;right=0;pointerEvents=1;" vertex="1" parent="OHDVKGtbjxheF6xRG5eF-82">
          <mxGeometry x="250" width="170" height="43" as="geometry">
            <mxRectangle width="170" height="43" as="alternateBounds" />
          </mxGeometry>
        </mxCell>
        <mxCell id="OHDVKGtbjxheF6xRG5eF-86" value="" style="shape=tableRow;horizontal=0;startSize=0;swimlaneHead=0;swimlaneBody=0;strokeColor=inherit;top=0;left=0;bottom=0;right=0;collapsible=0;dropTarget=0;fillColor=none;points=[[0,0.5],[1,0.5]];portConstraint=eastwest;" vertex="1" parent="OHDVKGtbjxheF6xRG5eF-61">
          <mxGeometry y="249" width="420" height="40" as="geometry" />
        </mxCell>
        <mxCell id="OHDVKGtbjxheF6xRG5eF-87" value="" style="shape=partialRectangle;html=1;whiteSpace=wrap;connectable=0;strokeColor=inherit;overflow=hidden;fillColor=none;top=0;left=0;bottom=0;right=0;pointerEvents=1;" vertex="1" parent="OHDVKGtbjxheF6xRG5eF-86">
          <mxGeometry width="70" height="40" as="geometry">
            <mxRectangle width="70" height="40" as="alternateBounds" />
          </mxGeometry>
        </mxCell>
        <mxCell id="OHDVKGtbjxheF6xRG5eF-88" value="" style="shape=partialRectangle;html=1;whiteSpace=wrap;connectable=0;strokeColor=inherit;overflow=hidden;fillColor=none;top=0;left=0;bottom=0;right=0;pointerEvents=1;" vertex="1" parent="OHDVKGtbjxheF6xRG5eF-86">
          <mxGeometry x="70" width="180" height="40" as="geometry">
            <mxRectangle width="180" height="40" as="alternateBounds" />
          </mxGeometry>
        </mxCell>
        <mxCell id="OHDVKGtbjxheF6xRG5eF-89" value="" style="shape=partialRectangle;html=1;whiteSpace=wrap;connectable=0;strokeColor=inherit;overflow=hidden;fillColor=none;top=0;left=0;bottom=0;right=0;pointerEvents=1;" vertex="1" parent="OHDVKGtbjxheF6xRG5eF-86">
          <mxGeometry x="250" width="170" height="40" as="geometry">
            <mxRectangle width="170" height="40" as="alternateBounds" />
          </mxGeometry>
        </mxCell>
        <mxCell id="OHDVKGtbjxheF6xRG5eF-90" value="" style="shape=tableRow;horizontal=0;startSize=0;swimlaneHead=0;swimlaneBody=0;strokeColor=inherit;top=0;left=0;bottom=0;right=0;collapsible=0;dropTarget=0;fillColor=none;points=[[0,0.5],[1,0.5]];portConstraint=eastwest;" vertex="1" parent="OHDVKGtbjxheF6xRG5eF-61">
          <mxGeometry y="289" width="420" height="41" as="geometry" />
        </mxCell>
        <mxCell id="OHDVKGtbjxheF6xRG5eF-91" value="" style="shape=partialRectangle;html=1;whiteSpace=wrap;connectable=0;strokeColor=inherit;overflow=hidden;fillColor=none;top=0;left=0;bottom=0;right=0;pointerEvents=1;" vertex="1" parent="OHDVKGtbjxheF6xRG5eF-90">
          <mxGeometry width="70" height="41" as="geometry">
            <mxRectangle width="70" height="41" as="alternateBounds" />
          </mxGeometry>
        </mxCell>
        <mxCell id="OHDVKGtbjxheF6xRG5eF-92" value="" style="shape=partialRectangle;html=1;whiteSpace=wrap;connectable=0;strokeColor=inherit;overflow=hidden;fillColor=none;top=0;left=0;bottom=0;right=0;pointerEvents=1;" vertex="1" parent="OHDVKGtbjxheF6xRG5eF-90">
          <mxGeometry x="70" width="180" height="41" as="geometry">
            <mxRectangle width="180" height="41" as="alternateBounds" />
          </mxGeometry>
        </mxCell>
        <mxCell id="OHDVKGtbjxheF6xRG5eF-93" value="" style="shape=partialRectangle;html=1;whiteSpace=wrap;connectable=0;strokeColor=inherit;overflow=hidden;fillColor=none;top=0;left=0;bottom=0;right=0;pointerEvents=1;" vertex="1" parent="OHDVKGtbjxheF6xRG5eF-90">
          <mxGeometry x="250" width="170" height="41" as="geometry">
            <mxRectangle width="170" height="41" as="alternateBounds" />
          </mxGeometry>
        </mxCell>
        <mxCell id="qYflDDiI7B78xpO1K8rn-11" value="&lt;b&gt;USE CASE #1&lt;/b&gt;" style="text;html=1;align=center;verticalAlign=middle;whiteSpace=wrap;rounded=0;" parent="1" vertex="1">
          <mxGeometry x="130" y="70" width="130" height="40" as="geometry" />
        </mxCell>
        <mxCell id="qYflDDiI7B78xpO1K8rn-12" value="Propone offerta per immobile" style="text;html=1;align=center;verticalAlign=middle;whiteSpace=wrap;rounded=0;" parent="1" vertex="1">
          <mxGeometry x="350" y="70" width="210" height="40" as="geometry" />
        </mxCell>
        <mxCell id="qYflDDiI7B78xpO1K8rn-13" value="&lt;b&gt;GOAL IN CONTEXT&lt;/b&gt;" style="text;html=1;align=center;verticalAlign=middle;whiteSpace=wrap;rounded=0;" parent="1" vertex="1">
          <mxGeometry x="130" y="130" width="130" height="40" as="geometry" />
        </mxCell>
        <mxCell id="qYflDDiI7B78xpO1K8rn-14" value="&lt;b&gt;PRECONDITIONS&lt;/b&gt;&lt;span style=&quot;color: rgba(0, 0, 0, 0); font-family: monospace; font-size: 0px; text-align: start; text-wrap-mode: nowrap;&quot;&gt;%3CmxGraphModel%3E%3Croot%3E%3CmxCell%20id%3D%220%22%2F%3E%3CmxCell%20id%3D%221%22%20parent%3D%220%22%2F%3E%3CmxCell%20id%3D%222%22%20value%3D%22%26lt%3Bb%26gt%3BUSE%20CASE%20%231%26lt%3B%2Fb%26gt%3B%22%20style%3D%22text%3Bhtml%3D1%3Balign%3Dcenter%3BverticalAlign%3Dmiddle%3BwhiteSpace%3Dwrap%3Brounded%3D0%3B%22%20vertex%3D%221%22%20parent%3D%221%22%3E%3CmxGeometry%20x%3D%22120%22%20y%3D%2270%22%20width%3D%22130%22%20height%3D%2240%22%20as%3D%22geometry%22%2F%3E%3C%2FmxCell%3E%3C%2Froot%3E%3C%2FmxGraphModel%3E&lt;/span&gt;" style="text;html=1;align=center;verticalAlign=middle;whiteSpace=wrap;rounded=0;" parent="1" vertex="1">
          <mxGeometry x="130" y="190" width="130" height="40" as="geometry" />
        </mxCell>
        <mxCell id="qYflDDiI7B78xpO1K8rn-15" value="&lt;b&gt;SUCCESS END&amp;nbsp;&lt;/b&gt;&lt;div&gt;&lt;b&gt;CONDITION&lt;/b&gt;&lt;/div&gt;" style="text;html=1;align=center;verticalAlign=middle;whiteSpace=wrap;rounded=0;" parent="1" vertex="1">
          <mxGeometry x="125" y="240" width="130" height="40" as="geometry" />
        </mxCell>
        <mxCell id="qYflDDiI7B78xpO1K8rn-16" value="&lt;b&gt;FAILED END&amp;nbsp;&lt;/b&gt;&lt;div&gt;&lt;b&gt;CONDITION&lt;/b&gt;&lt;/div&gt;" style="text;html=1;align=center;verticalAlign=middle;whiteSpace=wrap;rounded=0;" parent="1" vertex="1">
          <mxGeometry x="125" y="300" width="130" height="40" as="geometry" />
        </mxCell>
        <mxCell id="qYflDDiI7B78xpO1K8rn-17" value="&lt;b&gt;PRIMARY ACTOR&lt;/b&gt;" style="text;html=1;align=center;verticalAlign=middle;whiteSpace=wrap;rounded=0;" parent="1" vertex="1">
          <mxGeometry x="130" y="360" width="130" height="40" as="geometry" />
        </mxCell>
        <mxCell id="qYflDDiI7B78xpO1K8rn-18" value="&lt;b&gt;TRIGGER&lt;/b&gt;" style="text;html=1;align=center;verticalAlign=middle;whiteSpace=wrap;rounded=0;" parent="1" vertex="1">
          <mxGeometry x="125" y="410" width="130" height="40" as="geometry" />
        </mxCell>
        <mxCell id="qYflDDiI7B78xpO1K8rn-29" value="Un utente vuole inviare un&#39;offerta per un immobile" style="text;html=1;align=center;verticalAlign=middle;whiteSpace=wrap;rounded=0;" parent="1" vertex="1">
          <mxGeometry x="350" y="130" width="210" height="40" as="geometry" />
        </mxCell>
        <mxCell id="qYflDDiI7B78xpO1K8rn-30" value="L&#39;utente deve aver effettuato il caso d&#39;uso&amp;nbsp;&lt;div&gt;&quot;Effettua Autenticazione&quot;&lt;/div&gt;" style="text;html=1;align=center;verticalAlign=middle;whiteSpace=wrap;rounded=0;" parent="1" vertex="1">
          <mxGeometry x="305" y="190" width="300" height="40" as="geometry" />
        </mxCell>
        <mxCell id="qYflDDiI7B78xpO1K8rn-31" value="Il sistema tiene traccia dell&#39;offerta aggiornando gli storici dell&#39;utente&amp;nbsp;&lt;div&gt;e dell&#39;agente che ha caricato l&#39;immobile interessato&amp;nbsp;&lt;/div&gt;" style="text;html=1;align=center;verticalAlign=middle;whiteSpace=wrap;rounded=0;" parent="1" vertex="1">
          <mxGeometry x="260" y="240" width="415" height="40" as="geometry" />
        </mxCell>
        <mxCell id="qYflDDiI7B78xpO1K8rn-32" value="Il sistema non tiene traccia dell&#39;offerta lasciando invariati gli storici&amp;nbsp;&lt;div&gt;dell&#39;utente&amp;nbsp;&lt;span style=&quot;background-color: initial;&quot;&gt;e dell&#39;agente che ha caricato l&#39;immobile interessato&amp;nbsp;&lt;/span&gt;&lt;/div&gt;" style="text;html=1;align=center;verticalAlign=middle;whiteSpace=wrap;rounded=0;" parent="1" vertex="1">
          <mxGeometry x="255" y="300" width="420" height="40" as="geometry" />
        </mxCell>
        <mxCell id="qYflDDiI7B78xpO1K8rn-33" value="Utente Registrato" style="text;html=1;align=center;verticalAlign=middle;whiteSpace=wrap;rounded=0;" parent="1" vertex="1">
          <mxGeometry x="350" y="360" width="210" height="40" as="geometry" />
        </mxCell>
        <mxCell id="qYflDDiI7B78xpO1K8rn-34" value="Clicca &quot;Proponi Offerta&quot;" style="text;html=1;align=center;verticalAlign=middle;whiteSpace=wrap;rounded=0;" parent="1" vertex="1">
          <mxGeometry x="360" y="410" width="210" height="40" as="geometry" />
        </mxCell>
        <mxCell id="qYflDDiI7B78xpO1K8rn-36" value="&lt;b&gt;MAIN SCENARIO&lt;/b&gt;" style="text;html=1;align=center;verticalAlign=middle;whiteSpace=wrap;rounded=0;" parent="1" vertex="1">
          <mxGeometry x="125" y="470" width="130" height="40" as="geometry" />
        </mxCell>
        <mxCell id="qYflDDiI7B78xpO1K8rn-40" value="&lt;b&gt;Step n.&lt;/b&gt;" style="text;html=1;align=center;verticalAlign=middle;whiteSpace=wrap;rounded=0;" parent="1" vertex="1">
          <mxGeometry x="270" y="470" width="50" height="30" as="geometry" />
        </mxCell>
        <mxCell id="qYflDDiI7B78xpO1K8rn-41" value="&lt;b&gt;Utente Registrato&lt;/b&gt;" style="text;html=1;align=center;verticalAlign=middle;whiteSpace=wrap;rounded=0;" parent="1" vertex="1">
          <mxGeometry x="352.5" y="470" width="130" height="30" as="geometry" />
        </mxCell>
        <mxCell id="qYflDDiI7B78xpO1K8rn-42" value="&lt;b&gt;Sistema&lt;/b&gt;" style="text;html=1;align=center;verticalAlign=middle;whiteSpace=wrap;rounded=0;" parent="1" vertex="1">
          <mxGeometry x="525" y="470" width="130" height="30" as="geometry" />
        </mxCell>
        <mxCell id="qYflDDiI7B78xpO1K8rn-44" value="&lt;b&gt;1&lt;/b&gt;" style="text;html=1;align=center;verticalAlign=middle;whiteSpace=wrap;rounded=0;" parent="1" vertex="1">
          <mxGeometry x="272.5" y="513" width="45" height="30" as="geometry" />
        </mxCell>
        <mxCell id="qYflDDiI7B78xpO1K8rn-45" value="Clicca &quot;Proponi Offerta&quot; in&amp;nbsp;&lt;span style=&quot;background-color: initial;&quot;&gt;MO-1/MO-10/MO-9/MO-12/MO-13&lt;/span&gt;" style="text;html=1;align=center;verticalAlign=middle;whiteSpace=wrap;rounded=0;" parent="1" vertex="1">
          <mxGeometry x="332.5" y="510.5" width="175" height="35" as="geometry" />
        </mxCell>
        <mxCell id="qYflDDiI7B78xpO1K8rn-47" value="&lt;b&gt;2&lt;/b&gt;" style="text;html=1;align=center;verticalAlign=middle;whiteSpace=wrap;rounded=0;" parent="1" vertex="1">
          <mxGeometry x="272.5" y="555" width="45" height="30" as="geometry" />
        </mxCell>
        <mxCell id="qYflDDiI7B78xpO1K8rn-48" value="Mostra MO-11&amp;nbsp;" style="text;html=1;align=center;verticalAlign=middle;whiteSpace=wrap;rounded=0;" parent="1" vertex="1">
          <mxGeometry x="525" y="550" width="130" height="40" as="geometry" />
        </mxCell>
        <mxCell id="qYflDDiI7B78xpO1K8rn-50" value="&lt;b&gt;3&lt;/b&gt;" style="text;html=1;align=center;verticalAlign=middle;whiteSpace=wrap;rounded=0;" parent="1" vertex="1">
          <mxGeometry x="272.5" y="594.5" width="45" height="30" as="geometry" />
        </mxCell>
        <mxCell id="qYflDDiI7B78xpO1K8rn-51" value="Compila il campo &quot;Proponi Offerta&quot; e clicca il bottone &quot;Invia&quot;" style="text;html=1;align=center;verticalAlign=middle;whiteSpace=wrap;rounded=0;" parent="1" vertex="1">
          <mxGeometry x="329.5" y="584.5" width="181" height="40" as="geometry" />
        </mxCell>
        <mxCell id="qYflDDiI7B78xpO1K8rn-53" value="&lt;b&gt;4&lt;/b&gt;" style="text;html=1;align=center;verticalAlign=middle;whiteSpace=wrap;rounded=0;" parent="1" vertex="1">
          <mxGeometry x="272.5" y="635" width="45" height="30" as="geometry" />
        </mxCell>
        <mxCell id="qYflDDiI7B78xpO1K8rn-54" value="Mostra MO-14&amp;nbsp;" style="text;html=1;align=center;verticalAlign=middle;whiteSpace=wrap;rounded=0;" parent="1" vertex="1">
          <mxGeometry x="525" y="630" width="130" height="40" as="geometry" />
        </mxCell>
        <mxCell id="qYflDDiI7B78xpO1K8rn-55" value="" style="endArrow=none;html=1;rounded=0;exitX=1;exitY=0.5;exitDx=0;exitDy=0;entryX=0.005;entryY=0.545;entryDx=0;entryDy=0;entryPerimeter=0;" parent="1" source="OHDVKGtbjxheF6xRG5eF-78" target="qYflDDiI7B78xpO1K8rn-57" edge="1">
          <mxGeometry width="50" height="50" relative="1" as="geometry">
            <mxPoint x="689.4200000000001" y="536.4199999999998" as="sourcePoint" />
            <mxPoint x="730" y="539.3" as="targetPoint" />
          </mxGeometry>
        </mxCell>
        <mxCell id="qYflDDiI7B78xpO1K8rn-57" value="va inserita nei mockup una finestra di conferma (MO-14)" style="shape=note;whiteSpace=wrap;html=1;backgroundOutline=1;darkOpacity=0.05;" parent="1" vertex="1">
          <mxGeometry x="730" y="480" width="90" height="140" as="geometry" />
        </mxCell>
        <mxCell id="qYflDDiI7B78xpO1K8rn-59" value="&lt;b&gt;5&lt;/b&gt;" style="text;html=1;align=center;verticalAlign=middle;whiteSpace=wrap;rounded=0;" parent="1" vertex="1">
          <mxGeometry x="272.5" y="675" width="45" height="30" as="geometry" />
        </mxCell>
        <mxCell id="qYflDDiI7B78xpO1K8rn-60" value="Clicca il bottone &quot;Conferma&quot;&amp;nbsp;" style="text;html=1;align=center;verticalAlign=middle;whiteSpace=wrap;rounded=0;" parent="1" vertex="1">
          <mxGeometry x="340" y="670" width="160" height="40" as="geometry" />
        </mxCell>
        <mxCell id="qYflDDiI7B78xpO1K8rn-62" value="Mostra MO-15&amp;nbsp;" style="text;html=1;align=center;verticalAlign=middle;whiteSpace=wrap;rounded=0;" parent="1" vertex="1">
          <mxGeometry x="525" y="710" width="130" height="40" as="geometry" />
        </mxCell>
        <mxCell id="qYflDDiI7B78xpO1K8rn-63" value="va inserita nei mockup una finestra di successo (MO-15)" style="shape=note;whiteSpace=wrap;html=1;backgroundOutline=1;darkOpacity=0.05;" parent="1" vertex="1">
          <mxGeometry x="730" y="635" width="90" height="140" as="geometry" />
        </mxCell>
        <mxCell id="qYflDDiI7B78xpO1K8rn-64" value="" style="endArrow=none;html=1;rounded=0;entryX=-0.015;entryY=0.383;entryDx=0;entryDy=0;entryPerimeter=0;exitX=1;exitY=0.5;exitDx=0;exitDy=0;" parent="1" source="OHDVKGtbjxheF6xRG5eF-86" target="qYflDDiI7B78xpO1K8rn-63" edge="1">
          <mxGeometry width="50" height="50" relative="1" as="geometry">
            <mxPoint x="691.7400000000002" y="598.6699999999998" as="sourcePoint" />
            <mxPoint x="510" y="560" as="targetPoint" />
          </mxGeometry>
        </mxCell>
        <mxCell id="qYflDDiI7B78xpO1K8rn-65" value="&lt;b&gt;6&lt;/b&gt;" style="text;html=1;align=center;verticalAlign=middle;whiteSpace=wrap;rounded=0;" parent="1" vertex="1">
          <mxGeometry x="272.5" y="715" width="45" height="30" as="geometry" />
        </mxCell>
        <mxCell id="qYflDDiI7B78xpO1K8rn-67" value="&lt;b&gt;7&lt;/b&gt;" style="text;html=1;align=center;verticalAlign=middle;whiteSpace=wrap;rounded=0;" parent="1" vertex="1">
          <mxGeometry x="272.5" y="760" width="45" height="20" as="geometry" />
        </mxCell>
        <mxCell id="qYflDDiI7B78xpO1K8rn-68" value="Clicca il bottone &quot;OK&quot;" style="text;html=1;align=center;verticalAlign=middle;whiteSpace=wrap;rounded=0;" parent="1" vertex="1">
          <mxGeometry x="340" y="755" width="160" height="30" as="geometry" />
        </mxCell>
        <mxCell id="qYflDDiI7B78xpO1K8rn-70" value="&lt;b&gt;EXTENSION A:&lt;/b&gt;&lt;div&gt;&lt;b&gt;L&#39;UTENTE ANNULLA LA PROCEDURA ALLA SCHERMATA DI CONFERMA&lt;/b&gt;&lt;/div&gt;" style="text;html=1;align=center;verticalAlign=middle;whiteSpace=wrap;rounded=0;" parent="1" vertex="1">
          <mxGeometry x="125" y="800" width="130" height="70" as="geometry" />
        </mxCell>
        <mxCell id="qYflDDiI7B78xpO1K8rn-78" value="&lt;b&gt;EXTENSION B:&lt;/b&gt;&lt;div&gt;&lt;b&gt;L&#39;UTENTE ANNULLA LA PROCEDURA NEGLI STEP INIZIALI&lt;/b&gt;&lt;/div&gt;" style="text;html=1;align=center;verticalAlign=middle;whiteSpace=wrap;rounded=0;" parent="1" vertex="1">
          <mxGeometry x="125" y="895" width="130" height="70" as="geometry" />
        </mxCell>
        <mxCell id="KpFrGR25k532rt7Bh25q-1" value="" style="shape=table;startSize=0;container=1;collapsible=0;childLayout=tableLayout;" vertex="1" parent="1">
          <mxGeometry x="260" y="790" width="420" height="90" as="geometry" />
        </mxCell>
        <mxCell id="KpFrGR25k532rt7Bh25q-2" value="" style="shape=tableRow;horizontal=0;startSize=0;swimlaneHead=0;swimlaneBody=0;strokeColor=inherit;top=0;left=0;bottom=0;right=0;collapsible=0;dropTarget=0;fillColor=none;points=[[0,0.5],[1,0.5]];portConstraint=eastwest;" vertex="1" parent="KpFrGR25k532rt7Bh25q-1">
          <mxGeometry width="420" height="44" as="geometry" />
        </mxCell>
        <mxCell id="KpFrGR25k532rt7Bh25q-3" value="" style="shape=partialRectangle;html=1;whiteSpace=wrap;connectable=0;strokeColor=inherit;overflow=hidden;fillColor=none;top=0;left=0;bottom=0;right=0;pointerEvents=1;" vertex="1" parent="KpFrGR25k532rt7Bh25q-2">
          <mxGeometry width="70" height="44" as="geometry">
            <mxRectangle width="70" height="44" as="alternateBounds" />
          </mxGeometry>
        </mxCell>
        <mxCell id="KpFrGR25k532rt7Bh25q-4" value="" style="shape=partialRectangle;html=1;whiteSpace=wrap;connectable=0;strokeColor=inherit;overflow=hidden;fillColor=none;top=0;left=0;bottom=0;right=0;pointerEvents=1;" vertex="1" parent="KpFrGR25k532rt7Bh25q-2">
          <mxGeometry x="70" width="180" height="44" as="geometry">
            <mxRectangle width="180" height="44" as="alternateBounds" />
          </mxGeometry>
        </mxCell>
        <mxCell id="KpFrGR25k532rt7Bh25q-5" value="" style="shape=partialRectangle;html=1;whiteSpace=wrap;connectable=0;strokeColor=inherit;overflow=hidden;fillColor=none;top=0;left=0;bottom=0;right=0;pointerEvents=1;" vertex="1" parent="KpFrGR25k532rt7Bh25q-2">
          <mxGeometry x="250" width="170" height="44" as="geometry">
            <mxRectangle width="170" height="44" as="alternateBounds" />
          </mxGeometry>
        </mxCell>
        <mxCell id="KpFrGR25k532rt7Bh25q-6" value="" style="shape=tableRow;horizontal=0;startSize=0;swimlaneHead=0;swimlaneBody=0;strokeColor=inherit;top=0;left=0;bottom=0;right=0;collapsible=0;dropTarget=0;fillColor=none;points=[[0,0.5],[1,0.5]];portConstraint=eastwest;" vertex="1" parent="KpFrGR25k532rt7Bh25q-1">
          <mxGeometry y="44" width="420" height="46" as="geometry" />
        </mxCell>
        <mxCell id="KpFrGR25k532rt7Bh25q-7" value="" style="shape=partialRectangle;html=1;whiteSpace=wrap;connectable=0;strokeColor=inherit;overflow=hidden;fillColor=none;top=0;left=0;bottom=0;right=0;pointerEvents=1;" vertex="1" parent="KpFrGR25k532rt7Bh25q-6">
          <mxGeometry width="70" height="46" as="geometry">
            <mxRectangle width="70" height="46" as="alternateBounds" />
          </mxGeometry>
        </mxCell>
        <mxCell id="KpFrGR25k532rt7Bh25q-8" value="" style="shape=partialRectangle;html=1;whiteSpace=wrap;connectable=0;strokeColor=inherit;overflow=hidden;fillColor=none;top=0;left=0;bottom=0;right=0;pointerEvents=1;" vertex="1" parent="KpFrGR25k532rt7Bh25q-6">
          <mxGeometry x="70" width="180" height="46" as="geometry">
            <mxRectangle width="180" height="46" as="alternateBounds" />
          </mxGeometry>
        </mxCell>
        <mxCell id="KpFrGR25k532rt7Bh25q-9" value="" style="shape=partialRectangle;html=1;whiteSpace=wrap;connectable=0;strokeColor=inherit;overflow=hidden;fillColor=none;top=0;left=0;bottom=0;right=0;pointerEvents=1;" vertex="1" parent="KpFrGR25k532rt7Bh25q-6">
          <mxGeometry x="250" width="170" height="46" as="geometry">
            <mxRectangle width="170" height="46" as="alternateBounds" />
          </mxGeometry>
        </mxCell>
        <mxCell id="KpFrGR25k532rt7Bh25q-10" value="&lt;b&gt;5a&lt;/b&gt;&lt;span style=&quot;color: rgba(0, 0, 0, 0); font-family: monospace; font-size: 0px; text-align: start; text-wrap-mode: nowrap;&quot;&gt;%3CmxGraphModel%3E%3Croot%3E%3CmxCell%20id%3D%220%22%2F%3E%3CmxCell%20id%3D%221%22%20parent%3D%220%22%2F%3E%3CmxCell%20id%3D%222%22%20value%3D%22%26lt%3Bb%26gt%3B7%26lt%3B%2Fb%26gt%3B%22%20style%3D%22text%3Bhtml%3D1%3Balign%3Dcenter%3BverticalAlign%3Dmiddle%3BwhiteSpace%3Dwrap%3Brounded%3D0%3B%22%20vertex%3D%221%22%20parent%3D%221%22%3E%3CmxGeometry%20x%3D%22272.5%22%20y%3D%22760%22%20width%3D%2245%22%20height%3D%2220%22%20as%3D%22geometry%22%2F%3E%3C%2FmxCell%3E%3C%2Froot%3E%3C%2FmxGraphModel%3E&lt;/span&gt;" style="text;html=1;align=center;verticalAlign=middle;whiteSpace=wrap;rounded=0;" vertex="1" parent="1">
          <mxGeometry x="272.5" y="800" width="45" height="20" as="geometry" />
        </mxCell>
        <mxCell id="KpFrGR25k532rt7Bh25q-11" value="&lt;b&gt;6a&lt;/b&gt;" style="text;html=1;align=center;verticalAlign=middle;whiteSpace=wrap;rounded=0;" vertex="1" parent="1">
          <mxGeometry x="272.5" y="850" width="45" height="20" as="geometry" />
        </mxCell>
        <mxCell id="KpFrGR25k532rt7Bh25q-12" value="Clicca il bottone &quot;Annulla&quot;&amp;nbsp;" style="text;html=1;align=center;verticalAlign=middle;whiteSpace=wrap;rounded=0;" vertex="1" parent="1">
          <mxGeometry x="340" y="795" width="160" height="30" as="geometry" />
        </mxCell>
        <mxCell id="mHSFYZS-jyCkrbk53e7z-1" value="Ritorna allo step 2" style="text;html=1;align=center;verticalAlign=middle;whiteSpace=wrap;rounded=0;" vertex="1" parent="1">
          <mxGeometry x="520" y="840" width="160" height="30" as="geometry" />
        </mxCell>
        <mxCell id="mHSFYZS-jyCkrbk53e7z-40" value="" style="shape=table;startSize=0;container=1;collapsible=0;childLayout=tableLayout;" vertex="1" parent="1">
          <mxGeometry x="260" y="880" width="420" height="90" as="geometry" />
        </mxCell>
        <mxCell id="mHSFYZS-jyCkrbk53e7z-41" value="" style="shape=tableRow;horizontal=0;startSize=0;swimlaneHead=0;swimlaneBody=0;strokeColor=inherit;top=0;left=0;bottom=0;right=0;collapsible=0;dropTarget=0;fillColor=none;points=[[0,0.5],[1,0.5]];portConstraint=eastwest;" vertex="1" parent="mHSFYZS-jyCkrbk53e7z-40">
          <mxGeometry width="420" height="45" as="geometry" />
        </mxCell>
        <mxCell id="mHSFYZS-jyCkrbk53e7z-42" value="" style="shape=partialRectangle;html=1;whiteSpace=wrap;connectable=0;strokeColor=inherit;overflow=hidden;fillColor=none;top=0;left=0;bottom=0;right=0;pointerEvents=1;" vertex="1" parent="mHSFYZS-jyCkrbk53e7z-41">
          <mxGeometry width="70" height="45" as="geometry">
            <mxRectangle width="70" height="45" as="alternateBounds" />
          </mxGeometry>
        </mxCell>
        <mxCell id="mHSFYZS-jyCkrbk53e7z-43" value="" style="shape=partialRectangle;html=1;whiteSpace=wrap;connectable=0;strokeColor=inherit;overflow=hidden;fillColor=none;top=0;left=0;bottom=0;right=0;pointerEvents=1;" vertex="1" parent="mHSFYZS-jyCkrbk53e7z-41">
          <mxGeometry x="70" width="180" height="45" as="geometry">
            <mxRectangle width="180" height="45" as="alternateBounds" />
          </mxGeometry>
        </mxCell>
        <mxCell id="mHSFYZS-jyCkrbk53e7z-44" value="" style="shape=partialRectangle;html=1;whiteSpace=wrap;connectable=0;strokeColor=inherit;overflow=hidden;fillColor=none;top=0;left=0;bottom=0;right=0;pointerEvents=1;" vertex="1" parent="mHSFYZS-jyCkrbk53e7z-41">
          <mxGeometry x="250" width="170" height="45" as="geometry">
            <mxRectangle width="170" height="45" as="alternateBounds" />
          </mxGeometry>
        </mxCell>
        <mxCell id="mHSFYZS-jyCkrbk53e7z-45" value="" style="shape=tableRow;horizontal=0;startSize=0;swimlaneHead=0;swimlaneBody=0;strokeColor=inherit;top=0;left=0;bottom=0;right=0;collapsible=0;dropTarget=0;fillColor=none;points=[[0,0.5],[1,0.5]];portConstraint=eastwest;" vertex="1" parent="mHSFYZS-jyCkrbk53e7z-40">
          <mxGeometry y="45" width="420" height="45" as="geometry" />
        </mxCell>
        <mxCell id="mHSFYZS-jyCkrbk53e7z-46" value="" style="shape=partialRectangle;html=1;whiteSpace=wrap;connectable=0;strokeColor=inherit;overflow=hidden;fillColor=none;top=0;left=0;bottom=0;right=0;pointerEvents=1;" vertex="1" parent="mHSFYZS-jyCkrbk53e7z-45">
          <mxGeometry width="70" height="45" as="geometry">
            <mxRectangle width="70" height="45" as="alternateBounds" />
          </mxGeometry>
        </mxCell>
        <mxCell id="mHSFYZS-jyCkrbk53e7z-47" value="" style="shape=partialRectangle;html=1;whiteSpace=wrap;connectable=0;strokeColor=inherit;overflow=hidden;fillColor=none;top=0;left=0;bottom=0;right=0;pointerEvents=1;" vertex="1" parent="mHSFYZS-jyCkrbk53e7z-45">
          <mxGeometry x="70" width="180" height="45" as="geometry">
            <mxRectangle width="180" height="45" as="alternateBounds" />
          </mxGeometry>
        </mxCell>
        <mxCell id="mHSFYZS-jyCkrbk53e7z-48" value="" style="shape=partialRectangle;html=1;whiteSpace=wrap;connectable=0;strokeColor=inherit;overflow=hidden;fillColor=none;top=0;left=0;bottom=0;right=0;pointerEvents=1;" vertex="1" parent="mHSFYZS-jyCkrbk53e7z-45">
          <mxGeometry x="250" width="170" height="45" as="geometry">
            <mxRectangle width="170" height="45" as="alternateBounds" />
          </mxGeometry>
        </mxCell>
        <mxCell id="mHSFYZS-jyCkrbk53e7z-49" value="&lt;b&gt;3b&lt;/b&gt;" style="text;html=1;align=center;verticalAlign=middle;whiteSpace=wrap;rounded=0;" vertex="1" parent="1">
          <mxGeometry x="272.5" y="890" width="45" height="30" as="geometry" />
        </mxCell>
        <mxCell id="mHSFYZS-jyCkrbk53e7z-50" value="&lt;b&gt;4b&lt;/b&gt;" style="text;html=1;align=center;verticalAlign=middle;whiteSpace=wrap;rounded=0;" vertex="1" parent="1">
          <mxGeometry x="275" y="925" width="45" height="40" as="geometry" />
        </mxCell>
        <mxCell id="mHSFYZS-jyCkrbk53e7z-51" value="Clicca la freccia di navigazione per tornare indietro" style="text;html=1;align=center;verticalAlign=middle;whiteSpace=wrap;rounded=0;" vertex="1" parent="1">
          <mxGeometry x="332.5" y="880" width="170" height="40" as="geometry" />
        </mxCell>
        <mxCell id="mHSFYZS-jyCkrbk53e7z-52" value="Mostra la pagina da cui è partito l&#39;utente nello step 1 e termina UC" style="text;html=1;align=center;verticalAlign=middle;whiteSpace=wrap;rounded=0;" vertex="1" parent="1">
          <mxGeometry x="517.5" y="930" width="145" height="40" as="geometry" />
        </mxCell>
      </root>
    </mxGraphModel>
  </diagram>
  <diagram id="N7eBfCf_mLVutH3UNu9d" name="cambiaPassword">
    <mxGraphModel dx="1438" dy="624" grid="1" gridSize="10" guides="1" tooltips="1" connect="1" arrows="1" fold="1" page="1" pageScale="1" pageWidth="827" pageHeight="1169" math="0" shadow="0">
      <root>
        <mxCell id="0" />
        <mxCell id="1" parent="0" />
        <mxCell id="MVRMW_-bUuKTD5DjjZ-r-5" value="" style="shape=table;startSize=0;container=1;collapsible=0;childLayout=tableLayout;" vertex="1" parent="1">
          <mxGeometry x="80" y="40" width="600" height="840" as="geometry" />
        </mxCell>
        <mxCell id="MVRMW_-bUuKTD5DjjZ-r-6" value="" style="shape=tableRow;horizontal=0;startSize=0;swimlaneHead=0;swimlaneBody=0;strokeColor=inherit;top=0;left=0;bottom=0;right=0;collapsible=0;dropTarget=0;fillColor=none;points=[[0,0.5],[1,0.5]];portConstraint=eastwest;" vertex="1" parent="MVRMW_-bUuKTD5DjjZ-r-5">
          <mxGeometry width="600" height="65" as="geometry" />
        </mxCell>
        <mxCell id="MVRMW_-bUuKTD5DjjZ-r-7" value="" style="shape=partialRectangle;html=1;whiteSpace=wrap;connectable=0;strokeColor=inherit;overflow=hidden;fillColor=none;top=0;left=0;bottom=0;right=0;pointerEvents=1;" vertex="1" parent="MVRMW_-bUuKTD5DjjZ-r-6">
          <mxGeometry width="200" height="65" as="geometry">
            <mxRectangle width="200" height="65" as="alternateBounds" />
          </mxGeometry>
        </mxCell>
        <mxCell id="MVRMW_-bUuKTD5DjjZ-r-8" value="" style="shape=partialRectangle;html=1;whiteSpace=wrap;connectable=0;strokeColor=inherit;overflow=hidden;fillColor=none;top=0;left=0;bottom=0;right=0;pointerEvents=1;" vertex="1" parent="MVRMW_-bUuKTD5DjjZ-r-6">
          <mxGeometry x="200" width="400" height="65" as="geometry">
            <mxRectangle width="400" height="65" as="alternateBounds" />
          </mxGeometry>
        </mxCell>
        <mxCell id="MVRMW_-bUuKTD5DjjZ-r-9" value="" style="shape=tableRow;horizontal=0;startSize=0;swimlaneHead=0;swimlaneBody=0;strokeColor=inherit;top=0;left=0;bottom=0;right=0;collapsible=0;dropTarget=0;fillColor=none;points=[[0,0.5],[1,0.5]];portConstraint=eastwest;" vertex="1" parent="MVRMW_-bUuKTD5DjjZ-r-5">
          <mxGeometry y="65" width="600" height="64" as="geometry" />
        </mxCell>
        <mxCell id="MVRMW_-bUuKTD5DjjZ-r-10" value="" style="shape=partialRectangle;html=1;whiteSpace=wrap;connectable=0;strokeColor=inherit;overflow=hidden;fillColor=none;top=0;left=0;bottom=0;right=0;pointerEvents=1;" vertex="1" parent="MVRMW_-bUuKTD5DjjZ-r-9">
          <mxGeometry width="200" height="64" as="geometry">
            <mxRectangle width="200" height="64" as="alternateBounds" />
          </mxGeometry>
        </mxCell>
        <mxCell id="MVRMW_-bUuKTD5DjjZ-r-11" value="" style="shape=partialRectangle;html=1;whiteSpace=wrap;connectable=0;strokeColor=inherit;overflow=hidden;fillColor=none;top=0;left=0;bottom=0;right=0;pointerEvents=1;" vertex="1" parent="MVRMW_-bUuKTD5DjjZ-r-9">
          <mxGeometry x="200" width="400" height="64" as="geometry">
            <mxRectangle width="400" height="64" as="alternateBounds" />
          </mxGeometry>
        </mxCell>
        <mxCell id="MVRMW_-bUuKTD5DjjZ-r-12" value="" style="shape=tableRow;horizontal=0;startSize=0;swimlaneHead=0;swimlaneBody=0;strokeColor=inherit;top=0;left=0;bottom=0;right=0;collapsible=0;dropTarget=0;fillColor=none;points=[[0,0.5],[1,0.5]];portConstraint=eastwest;" vertex="1" parent="MVRMW_-bUuKTD5DjjZ-r-5">
          <mxGeometry y="129" width="600" height="65" as="geometry" />
        </mxCell>
        <mxCell id="MVRMW_-bUuKTD5DjjZ-r-13" value="" style="shape=partialRectangle;html=1;whiteSpace=wrap;connectable=0;strokeColor=inherit;overflow=hidden;fillColor=none;top=0;left=0;bottom=0;right=0;pointerEvents=1;" vertex="1" parent="MVRMW_-bUuKTD5DjjZ-r-12">
          <mxGeometry width="200" height="65" as="geometry">
            <mxRectangle width="200" height="65" as="alternateBounds" />
          </mxGeometry>
        </mxCell>
        <mxCell id="MVRMW_-bUuKTD5DjjZ-r-14" value="" style="shape=partialRectangle;html=1;whiteSpace=wrap;connectable=0;strokeColor=inherit;overflow=hidden;fillColor=none;top=0;left=0;bottom=0;right=0;pointerEvents=1;" vertex="1" parent="MVRMW_-bUuKTD5DjjZ-r-12">
          <mxGeometry x="200" width="400" height="65" as="geometry">
            <mxRectangle width="400" height="65" as="alternateBounds" />
          </mxGeometry>
        </mxCell>
        <mxCell id="MVRMW_-bUuKTD5DjjZ-r-15" value="" style="shape=tableRow;horizontal=0;startSize=0;swimlaneHead=0;swimlaneBody=0;strokeColor=inherit;top=0;left=0;bottom=0;right=0;collapsible=0;dropTarget=0;fillColor=none;points=[[0,0.5],[1,0.5]];portConstraint=eastwest;" vertex="1" parent="MVRMW_-bUuKTD5DjjZ-r-5">
          <mxGeometry y="194" width="600" height="65" as="geometry" />
        </mxCell>
        <mxCell id="MVRMW_-bUuKTD5DjjZ-r-16" value="" style="shape=partialRectangle;html=1;whiteSpace=wrap;connectable=0;strokeColor=inherit;overflow=hidden;fillColor=none;top=0;left=0;bottom=0;right=0;pointerEvents=1;" vertex="1" parent="MVRMW_-bUuKTD5DjjZ-r-15">
          <mxGeometry width="200" height="65" as="geometry">
            <mxRectangle width="200" height="65" as="alternateBounds" />
          </mxGeometry>
        </mxCell>
        <mxCell id="MVRMW_-bUuKTD5DjjZ-r-17" value="" style="shape=partialRectangle;html=1;whiteSpace=wrap;connectable=0;strokeColor=inherit;overflow=hidden;fillColor=none;top=0;left=0;bottom=0;right=0;pointerEvents=1;" vertex="1" parent="MVRMW_-bUuKTD5DjjZ-r-15">
          <mxGeometry x="200" width="400" height="65" as="geometry">
            <mxRectangle width="400" height="65" as="alternateBounds" />
          </mxGeometry>
        </mxCell>
        <mxCell id="MVRMW_-bUuKTD5DjjZ-r-18" value="" style="shape=tableRow;horizontal=0;startSize=0;swimlaneHead=0;swimlaneBody=0;strokeColor=inherit;top=0;left=0;bottom=0;right=0;collapsible=0;dropTarget=0;fillColor=none;points=[[0,0.5],[1,0.5]];portConstraint=eastwest;" vertex="1" parent="MVRMW_-bUuKTD5DjjZ-r-5">
          <mxGeometry y="259" width="600" height="62" as="geometry" />
        </mxCell>
        <mxCell id="MVRMW_-bUuKTD5DjjZ-r-19" value="" style="shape=partialRectangle;html=1;whiteSpace=wrap;connectable=0;strokeColor=inherit;overflow=hidden;fillColor=none;top=0;left=0;bottom=0;right=0;pointerEvents=1;" vertex="1" parent="MVRMW_-bUuKTD5DjjZ-r-18">
          <mxGeometry width="200" height="62" as="geometry">
            <mxRectangle width="200" height="62" as="alternateBounds" />
          </mxGeometry>
        </mxCell>
        <mxCell id="MVRMW_-bUuKTD5DjjZ-r-20" value="" style="shape=partialRectangle;html=1;whiteSpace=wrap;connectable=0;strokeColor=inherit;overflow=hidden;fillColor=none;top=0;left=0;bottom=0;right=0;pointerEvents=1;" vertex="1" parent="MVRMW_-bUuKTD5DjjZ-r-18">
          <mxGeometry x="200" width="400" height="62" as="geometry">
            <mxRectangle width="400" height="62" as="alternateBounds" />
          </mxGeometry>
        </mxCell>
        <mxCell id="MVRMW_-bUuKTD5DjjZ-r-21" value="" style="shape=tableRow;horizontal=0;startSize=0;swimlaneHead=0;swimlaneBody=0;strokeColor=inherit;top=0;left=0;bottom=0;right=0;collapsible=0;dropTarget=0;fillColor=none;points=[[0,0.5],[1,0.5]];portConstraint=eastwest;" vertex="1" parent="MVRMW_-bUuKTD5DjjZ-r-5">
          <mxGeometry y="321" width="600" height="65" as="geometry" />
        </mxCell>
        <mxCell id="MVRMW_-bUuKTD5DjjZ-r-22" value="" style="shape=partialRectangle;html=1;whiteSpace=wrap;connectable=0;strokeColor=inherit;overflow=hidden;fillColor=none;top=0;left=0;bottom=0;right=0;pointerEvents=1;" vertex="1" parent="MVRMW_-bUuKTD5DjjZ-r-21">
          <mxGeometry width="200" height="65" as="geometry">
            <mxRectangle width="200" height="65" as="alternateBounds" />
          </mxGeometry>
        </mxCell>
        <mxCell id="MVRMW_-bUuKTD5DjjZ-r-23" value="" style="shape=partialRectangle;html=1;whiteSpace=wrap;connectable=0;strokeColor=inherit;overflow=hidden;fillColor=none;top=0;left=0;bottom=0;right=0;pointerEvents=1;" vertex="1" parent="MVRMW_-bUuKTD5DjjZ-r-21">
          <mxGeometry x="200" width="400" height="65" as="geometry">
            <mxRectangle width="400" height="65" as="alternateBounds" />
          </mxGeometry>
        </mxCell>
        <mxCell id="MVRMW_-bUuKTD5DjjZ-r-24" value="" style="shape=tableRow;horizontal=0;startSize=0;swimlaneHead=0;swimlaneBody=0;strokeColor=inherit;top=0;left=0;bottom=0;right=0;collapsible=0;dropTarget=0;fillColor=none;points=[[0,0.5],[1,0.5]];portConstraint=eastwest;" vertex="1" parent="MVRMW_-bUuKTD5DjjZ-r-5">
          <mxGeometry y="386" width="600" height="65" as="geometry" />
        </mxCell>
        <mxCell id="MVRMW_-bUuKTD5DjjZ-r-25" value="" style="shape=partialRectangle;html=1;whiteSpace=wrap;connectable=0;strokeColor=inherit;overflow=hidden;fillColor=none;top=0;left=0;bottom=0;right=0;pointerEvents=1;" vertex="1" parent="MVRMW_-bUuKTD5DjjZ-r-24">
          <mxGeometry width="200" height="65" as="geometry">
            <mxRectangle width="200" height="65" as="alternateBounds" />
          </mxGeometry>
        </mxCell>
        <mxCell id="MVRMW_-bUuKTD5DjjZ-r-26" value="" style="shape=partialRectangle;html=1;whiteSpace=wrap;connectable=0;strokeColor=inherit;overflow=hidden;fillColor=none;top=0;left=0;bottom=0;right=0;pointerEvents=1;" vertex="1" parent="MVRMW_-bUuKTD5DjjZ-r-24">
          <mxGeometry x="200" width="400" height="65" as="geometry">
            <mxRectangle width="400" height="65" as="alternateBounds" />
          </mxGeometry>
        </mxCell>
        <mxCell id="MVRMW_-bUuKTD5DjjZ-r-27" value="" style="shape=tableRow;horizontal=0;startSize=0;swimlaneHead=0;swimlaneBody=0;strokeColor=inherit;top=0;left=0;bottom=0;right=0;collapsible=0;dropTarget=0;fillColor=none;points=[[0,0.5],[1,0.5]];portConstraint=eastwest;" vertex="1" parent="MVRMW_-bUuKTD5DjjZ-r-5">
          <mxGeometry y="451" width="600" height="289" as="geometry" />
        </mxCell>
        <mxCell id="MVRMW_-bUuKTD5DjjZ-r-28" value="" style="shape=partialRectangle;html=1;whiteSpace=wrap;connectable=0;strokeColor=inherit;overflow=hidden;fillColor=none;top=0;left=0;bottom=0;right=0;pointerEvents=1;" vertex="1" parent="MVRMW_-bUuKTD5DjjZ-r-27">
          <mxGeometry width="200" height="289" as="geometry">
            <mxRectangle width="200" height="289" as="alternateBounds" />
          </mxGeometry>
        </mxCell>
        <mxCell id="MVRMW_-bUuKTD5DjjZ-r-29" value="" style="shape=partialRectangle;html=1;whiteSpace=wrap;connectable=0;strokeColor=inherit;overflow=hidden;fillColor=none;top=0;left=0;bottom=0;right=0;pointerEvents=1;" vertex="1" parent="MVRMW_-bUuKTD5DjjZ-r-27">
          <mxGeometry x="200" width="400" height="289" as="geometry">
            <mxRectangle width="400" height="289" as="alternateBounds" />
          </mxGeometry>
        </mxCell>
        <mxCell id="MVRMW_-bUuKTD5DjjZ-r-30" value="" style="shape=tableRow;horizontal=0;startSize=0;swimlaneHead=0;swimlaneBody=0;strokeColor=inherit;top=0;left=0;bottom=0;right=0;collapsible=0;dropTarget=0;fillColor=none;points=[[0,0.5],[1,0.5]];portConstraint=eastwest;" vertex="1" parent="MVRMW_-bUuKTD5DjjZ-r-5">
          <mxGeometry y="740" width="600" height="100" as="geometry" />
        </mxCell>
        <mxCell id="MVRMW_-bUuKTD5DjjZ-r-31" value="" style="shape=partialRectangle;html=1;whiteSpace=wrap;connectable=0;strokeColor=inherit;overflow=hidden;fillColor=none;top=0;left=0;bottom=0;right=0;pointerEvents=1;" vertex="1" parent="MVRMW_-bUuKTD5DjjZ-r-30">
          <mxGeometry width="200" height="100" as="geometry">
            <mxRectangle width="200" height="100" as="alternateBounds" />
          </mxGeometry>
        </mxCell>
        <mxCell id="MVRMW_-bUuKTD5DjjZ-r-32" value="" style="shape=partialRectangle;html=1;whiteSpace=wrap;connectable=0;strokeColor=inherit;overflow=hidden;fillColor=none;top=0;left=0;bottom=0;right=0;pointerEvents=1;" vertex="1" parent="MVRMW_-bUuKTD5DjjZ-r-30">
          <mxGeometry x="200" width="400" height="100" as="geometry">
            <mxRectangle width="400" height="100" as="alternateBounds" />
          </mxGeometry>
        </mxCell>
        <mxCell id="tX8uW1WyHNRnu-5NNHqg-1" value="&lt;b&gt;USE CASE #2&lt;/b&gt;" style="text;html=1;align=center;verticalAlign=middle;whiteSpace=wrap;rounded=0;" vertex="1" parent="1">
          <mxGeometry x="120" y="50" width="130" height="40" as="geometry" />
        </mxCell>
        <mxCell id="DGUotIzUvLN0xerb4m78-1" value="Cambia Password" style="text;html=1;align=center;verticalAlign=middle;whiteSpace=wrap;rounded=0;" vertex="1" parent="1">
          <mxGeometry x="405" y="50" width="130" height="40" as="geometry" />
        </mxCell>
        <mxCell id="VwDecGekTPY28i0vzDSf-1" value="&lt;b&gt;GOAL IN CONTEXT&lt;/b&gt;" style="text;html=1;align=center;verticalAlign=middle;whiteSpace=wrap;rounded=0;" vertex="1" parent="1">
          <mxGeometry x="120" y="120" width="130" height="40" as="geometry" />
        </mxCell>
        <mxCell id="1Hn9iVwjKAkIxLWSz7Pq-1" value="&lt;b&gt;PRECONDITIONS&lt;/b&gt;&lt;span style=&quot;color: rgba(0, 0, 0, 0); font-family: monospace; font-size: 0px; text-align: start; text-wrap-mode: nowrap;&quot;&gt;%3CmxGraphModel%3E%3Croot%3E%3CmxCell%20id%3D%220%22%2F%3E%3CmxCell%20id%3D%221%22%20parent%3D%220%22%2F%3E%3CmxCell%20id%3D%222%22%20value%3D%22%26lt%3Bb%26gt%3BUSE%20CASE%20%231%26lt%3B%2Fb%26gt%3B%22%20style%3D%22text%3Bhtml%3D1%3Balign%3Dcenter%3BverticalAlign%3Dmiddle%3BwhiteSpace%3Dwrap%3Brounded%3D0%3B%22%20vertex%3D%221%22%20parent%3D%221%22%3E%3CmxGeometry%20x%3D%22120%22%20y%3D%2270%22%20width%3D%22130%22%20height%3D%2240%22%20as%3D%22geometry%22%2F%3E%3C%2FmxCell%3E%3C%2Froot%3E%3C%2FmxGraphModel%3E&lt;/span&gt;" style="text;html=1;align=center;verticalAlign=middle;whiteSpace=wrap;rounded=0;" vertex="1" parent="1">
          <mxGeometry x="120" y="180" width="130" height="40" as="geometry" />
        </mxCell>
        <mxCell id="h8vrhjmvSfYbwG2Og4R5-1" value="&lt;b&gt;SUCCESS END&amp;nbsp;&lt;/b&gt;&lt;div&gt;&lt;b&gt;CONDITION&lt;/b&gt;&lt;/div&gt;" style="text;html=1;align=center;verticalAlign=middle;whiteSpace=wrap;rounded=0;" vertex="1" parent="1">
          <mxGeometry x="120" y="250" width="130" height="40" as="geometry" />
        </mxCell>
        <mxCell id="MVRMW_-bUuKTD5DjjZ-r-1" value="&lt;b&gt;FAILED END&amp;nbsp;&lt;/b&gt;&lt;div&gt;&lt;b&gt;CONDITION&lt;/b&gt;&lt;/div&gt;" style="text;html=1;align=center;verticalAlign=middle;whiteSpace=wrap;rounded=0;" vertex="1" parent="1">
          <mxGeometry x="120" y="310" width="130" height="40" as="geometry" />
        </mxCell>
        <mxCell id="MVRMW_-bUuKTD5DjjZ-r-2" value="" style="shape=tableRow;horizontal=0;startSize=0;swimlaneHead=0;swimlaneBody=0;strokeColor=inherit;top=0;left=0;bottom=0;right=0;collapsible=0;dropTarget=0;fillColor=none;points=[[0,0.5],[1,0.5]];portConstraint=eastwest;" vertex="1" parent="1">
          <mxGeometry x="120" y="430" width="560" height="65" as="geometry" />
        </mxCell>
        <mxCell id="ZeoOIqRKIh_t0qveNARn-1" value="&lt;b&gt;PRIMARY ACTOR&lt;/b&gt;" style="text;html=1;align=center;verticalAlign=middle;whiteSpace=wrap;rounded=0;" vertex="1" parent="1">
          <mxGeometry x="120" y="370" width="130" height="50" as="geometry" />
        </mxCell>
        <mxCell id="pgrD2BtHyQ_b4mTQ-JTw-1" value="&lt;b&gt;TRIGGER&lt;/b&gt;" style="text;html=1;align=center;verticalAlign=middle;whiteSpace=wrap;rounded=0;" vertex="1" parent="1">
          <mxGeometry x="120" y="440" width="130" height="40" as="geometry" />
        </mxCell>
        <mxCell id="99o4g9odQbmNIVvY66Fm-1" value="&lt;b&gt;MAIN SCENARIO&lt;/b&gt;" style="text;html=1;align=center;verticalAlign=middle;whiteSpace=wrap;rounded=0;" vertex="1" parent="1">
          <mxGeometry x="120" y="500" width="130" height="40" as="geometry" />
        </mxCell>
        <mxCell id="XkulW9Q6B7sFB1xrHiGX-1" value="Un amministratore vuole cambiare password" style="text;html=1;align=center;verticalAlign=middle;whiteSpace=wrap;rounded=0;" vertex="1" parent="1">
          <mxGeometry x="365" y="120" width="210" height="40" as="geometry" />
        </mxCell>
        <mxCell id="89TPgZx6Buh28bf3GfoC-1" value="L&#39;amministratore deve aver effettuato il caso d&#39;uso&amp;nbsp;&lt;div&gt;&quot;Effettua Login con credenziali aziendali&quot;&lt;/div&gt;" style="text;html=1;align=center;verticalAlign=middle;whiteSpace=wrap;rounded=0;" vertex="1" parent="1">
          <mxGeometry x="320" y="180" width="300" height="40" as="geometry" />
        </mxCell>
        <mxCell id="Rdx6w00l_2iEj7yl0_Xr-1" value="Il sistema tiene traccia del cambio della password aggiornandola all&#39;interno del database&lt;span style=&quot;background-color: initial;&quot;&gt;&amp;nbsp;&lt;/span&gt;" style="text;html=1;align=center;verticalAlign=middle;whiteSpace=wrap;rounded=0;" vertex="1" parent="1">
          <mxGeometry x="290" y="250" width="385" height="40" as="geometry" />
        </mxCell>
        <mxCell id="Rdx6w00l_2iEj7yl0_Xr-2" value="Il sistema non tiene traccia del cambio della password e non esegue nessun aggiornamento all&#39;interno del database&lt;span style=&quot;background-color: initial;&quot;&gt;&amp;nbsp;&lt;/span&gt;" style="text;html=1;align=center;verticalAlign=middle;whiteSpace=wrap;rounded=0;" vertex="1" parent="1">
          <mxGeometry x="290" y="310" width="385" height="40" as="geometry" />
        </mxCell>
        <mxCell id="Rdx6w00l_2iEj7yl0_Xr-3" value="Amministratore" style="text;html=1;align=center;verticalAlign=middle;whiteSpace=wrap;rounded=0;" vertex="1" parent="1">
          <mxGeometry x="290" y="370" width="385" height="40" as="geometry" />
        </mxCell>
        <mxCell id="Rdx6w00l_2iEj7yl0_Xr-5" value="Clicca il bottone &quot;Modifica&quot; in MO-18" style="text;html=1;align=center;verticalAlign=middle;whiteSpace=wrap;rounded=0;" vertex="1" parent="1">
          <mxGeometry x="290" y="440" width="385" height="40" as="geometry" />
        </mxCell>
        <mxCell id="gPpcPWvzjdFYE0nj1UgD-29" value="" style="shape=table;startSize=0;container=1;collapsible=0;childLayout=tableLayout;" vertex="1" parent="1">
          <mxGeometry x="280" y="490" width="400" height="250" as="geometry" />
        </mxCell>
        <mxCell id="gPpcPWvzjdFYE0nj1UgD-30" value="" style="shape=tableRow;horizontal=0;startSize=0;swimlaneHead=0;swimlaneBody=0;strokeColor=inherit;top=0;left=0;bottom=0;right=0;collapsible=0;dropTarget=0;fillColor=none;points=[[0,0.5],[1,0.5]];portConstraint=eastwest;" vertex="1" parent="gPpcPWvzjdFYE0nj1UgD-29">
          <mxGeometry width="400" height="42" as="geometry" />
        </mxCell>
        <mxCell id="gPpcPWvzjdFYE0nj1UgD-31" value="" style="shape=partialRectangle;html=1;whiteSpace=wrap;connectable=0;strokeColor=inherit;overflow=hidden;fillColor=none;top=0;left=0;bottom=0;right=0;pointerEvents=1;" vertex="1" parent="gPpcPWvzjdFYE0nj1UgD-30">
          <mxGeometry width="60" height="42" as="geometry">
            <mxRectangle width="60" height="42" as="alternateBounds" />
          </mxGeometry>
        </mxCell>
        <mxCell id="gPpcPWvzjdFYE0nj1UgD-32" value="" style="shape=partialRectangle;html=1;whiteSpace=wrap;connectable=0;strokeColor=inherit;overflow=hidden;fillColor=none;top=0;left=0;bottom=0;right=0;pointerEvents=1;" vertex="1" parent="gPpcPWvzjdFYE0nj1UgD-30">
          <mxGeometry x="60" width="190" height="42" as="geometry">
            <mxRectangle width="190" height="42" as="alternateBounds" />
          </mxGeometry>
        </mxCell>
        <mxCell id="gPpcPWvzjdFYE0nj1UgD-33" value="" style="shape=partialRectangle;html=1;whiteSpace=wrap;connectable=0;strokeColor=inherit;overflow=hidden;fillColor=none;top=0;left=0;bottom=0;right=0;pointerEvents=1;" vertex="1" parent="gPpcPWvzjdFYE0nj1UgD-30">
          <mxGeometry x="250" width="150" height="42" as="geometry">
            <mxRectangle width="150" height="42" as="alternateBounds" />
          </mxGeometry>
        </mxCell>
        <mxCell id="gPpcPWvzjdFYE0nj1UgD-34" value="" style="shape=tableRow;horizontal=0;startSize=0;swimlaneHead=0;swimlaneBody=0;strokeColor=inherit;top=0;left=0;bottom=0;right=0;collapsible=0;dropTarget=0;fillColor=none;points=[[0,0.5],[1,0.5]];portConstraint=eastwest;" vertex="1" parent="gPpcPWvzjdFYE0nj1UgD-29">
          <mxGeometry y="42" width="400" height="41" as="geometry" />
        </mxCell>
        <mxCell id="gPpcPWvzjdFYE0nj1UgD-35" value="" style="shape=partialRectangle;html=1;whiteSpace=wrap;connectable=0;strokeColor=inherit;overflow=hidden;fillColor=none;top=0;left=0;bottom=0;right=0;pointerEvents=1;" vertex="1" parent="gPpcPWvzjdFYE0nj1UgD-34">
          <mxGeometry width="60" height="41" as="geometry">
            <mxRectangle width="60" height="41" as="alternateBounds" />
          </mxGeometry>
        </mxCell>
        <mxCell id="gPpcPWvzjdFYE0nj1UgD-36" value="" style="shape=partialRectangle;html=1;whiteSpace=wrap;connectable=0;strokeColor=inherit;overflow=hidden;fillColor=none;top=0;left=0;bottom=0;right=0;pointerEvents=1;" vertex="1" parent="gPpcPWvzjdFYE0nj1UgD-34">
          <mxGeometry x="60" width="190" height="41" as="geometry">
            <mxRectangle width="190" height="41" as="alternateBounds" />
          </mxGeometry>
        </mxCell>
        <mxCell id="gPpcPWvzjdFYE0nj1UgD-37" value="" style="shape=partialRectangle;html=1;whiteSpace=wrap;connectable=0;strokeColor=inherit;overflow=hidden;fillColor=none;top=0;left=0;bottom=0;right=0;pointerEvents=1;" vertex="1" parent="gPpcPWvzjdFYE0nj1UgD-34">
          <mxGeometry x="250" width="150" height="41" as="geometry">
            <mxRectangle width="150" height="41" as="alternateBounds" />
          </mxGeometry>
        </mxCell>
        <mxCell id="gPpcPWvzjdFYE0nj1UgD-38" value="" style="shape=tableRow;horizontal=0;startSize=0;swimlaneHead=0;swimlaneBody=0;strokeColor=inherit;top=0;left=0;bottom=0;right=0;collapsible=0;dropTarget=0;fillColor=none;points=[[0,0.5],[1,0.5]];portConstraint=eastwest;" vertex="1" parent="gPpcPWvzjdFYE0nj1UgD-29">
          <mxGeometry y="83" width="400" height="42" as="geometry" />
        </mxCell>
        <mxCell id="gPpcPWvzjdFYE0nj1UgD-39" value="" style="shape=partialRectangle;html=1;whiteSpace=wrap;connectable=0;strokeColor=inherit;overflow=hidden;fillColor=none;top=0;left=0;bottom=0;right=0;pointerEvents=1;" vertex="1" parent="gPpcPWvzjdFYE0nj1UgD-38">
          <mxGeometry width="60" height="42" as="geometry">
            <mxRectangle width="60" height="42" as="alternateBounds" />
          </mxGeometry>
        </mxCell>
        <mxCell id="gPpcPWvzjdFYE0nj1UgD-40" value="" style="shape=partialRectangle;html=1;whiteSpace=wrap;connectable=0;strokeColor=inherit;overflow=hidden;fillColor=none;top=0;left=0;bottom=0;right=0;pointerEvents=1;" vertex="1" parent="gPpcPWvzjdFYE0nj1UgD-38">
          <mxGeometry x="60" width="190" height="42" as="geometry">
            <mxRectangle width="190" height="42" as="alternateBounds" />
          </mxGeometry>
        </mxCell>
        <mxCell id="gPpcPWvzjdFYE0nj1UgD-41" value="" style="shape=partialRectangle;html=1;whiteSpace=wrap;connectable=0;strokeColor=inherit;overflow=hidden;fillColor=none;top=0;left=0;bottom=0;right=0;pointerEvents=1;" vertex="1" parent="gPpcPWvzjdFYE0nj1UgD-38">
          <mxGeometry x="250" width="150" height="42" as="geometry">
            <mxRectangle width="150" height="42" as="alternateBounds" />
          </mxGeometry>
        </mxCell>
        <mxCell id="gPpcPWvzjdFYE0nj1UgD-42" value="" style="shape=tableRow;horizontal=0;startSize=0;swimlaneHead=0;swimlaneBody=0;strokeColor=inherit;top=0;left=0;bottom=0;right=0;collapsible=0;dropTarget=0;fillColor=none;points=[[0,0.5],[1,0.5]];portConstraint=eastwest;" vertex="1" parent="gPpcPWvzjdFYE0nj1UgD-29">
          <mxGeometry y="125" width="400" height="42" as="geometry" />
        </mxCell>
        <mxCell id="gPpcPWvzjdFYE0nj1UgD-43" value="" style="shape=partialRectangle;html=1;whiteSpace=wrap;connectable=0;strokeColor=inherit;overflow=hidden;fillColor=none;top=0;left=0;bottom=0;right=0;pointerEvents=1;" vertex="1" parent="gPpcPWvzjdFYE0nj1UgD-42">
          <mxGeometry width="60" height="42" as="geometry">
            <mxRectangle width="60" height="42" as="alternateBounds" />
          </mxGeometry>
        </mxCell>
        <mxCell id="gPpcPWvzjdFYE0nj1UgD-44" value="" style="shape=partialRectangle;html=1;whiteSpace=wrap;connectable=0;strokeColor=inherit;overflow=hidden;fillColor=none;top=0;left=0;bottom=0;right=0;pointerEvents=1;" vertex="1" parent="gPpcPWvzjdFYE0nj1UgD-42">
          <mxGeometry x="60" width="190" height="42" as="geometry">
            <mxRectangle width="190" height="42" as="alternateBounds" />
          </mxGeometry>
        </mxCell>
        <mxCell id="gPpcPWvzjdFYE0nj1UgD-45" value="" style="shape=partialRectangle;html=1;whiteSpace=wrap;connectable=0;strokeColor=inherit;overflow=hidden;fillColor=none;top=0;left=0;bottom=0;right=0;pointerEvents=1;" vertex="1" parent="gPpcPWvzjdFYE0nj1UgD-42">
          <mxGeometry x="250" width="150" height="42" as="geometry">
            <mxRectangle width="150" height="42" as="alternateBounds" />
          </mxGeometry>
        </mxCell>
        <mxCell id="gPpcPWvzjdFYE0nj1UgD-46" value="" style="shape=tableRow;horizontal=0;startSize=0;swimlaneHead=0;swimlaneBody=0;strokeColor=inherit;top=0;left=0;bottom=0;right=0;collapsible=0;dropTarget=0;fillColor=none;points=[[0,0.5],[1,0.5]];portConstraint=eastwest;" vertex="1" parent="gPpcPWvzjdFYE0nj1UgD-29">
          <mxGeometry y="167" width="400" height="41" as="geometry" />
        </mxCell>
        <mxCell id="gPpcPWvzjdFYE0nj1UgD-47" value="" style="shape=partialRectangle;html=1;whiteSpace=wrap;connectable=0;strokeColor=inherit;overflow=hidden;fillColor=none;top=0;left=0;bottom=0;right=0;pointerEvents=1;" vertex="1" parent="gPpcPWvzjdFYE0nj1UgD-46">
          <mxGeometry width="60" height="41" as="geometry">
            <mxRectangle width="60" height="41" as="alternateBounds" />
          </mxGeometry>
        </mxCell>
        <mxCell id="gPpcPWvzjdFYE0nj1UgD-48" value="" style="shape=partialRectangle;html=1;whiteSpace=wrap;connectable=0;strokeColor=inherit;overflow=hidden;fillColor=none;top=0;left=0;bottom=0;right=0;pointerEvents=1;" vertex="1" parent="gPpcPWvzjdFYE0nj1UgD-46">
          <mxGeometry x="60" width="190" height="41" as="geometry">
            <mxRectangle width="190" height="41" as="alternateBounds" />
          </mxGeometry>
        </mxCell>
        <mxCell id="gPpcPWvzjdFYE0nj1UgD-49" value="" style="shape=partialRectangle;html=1;whiteSpace=wrap;connectable=0;strokeColor=inherit;overflow=hidden;fillColor=none;top=0;left=0;bottom=0;right=0;pointerEvents=1;" vertex="1" parent="gPpcPWvzjdFYE0nj1UgD-46">
          <mxGeometry x="250" width="150" height="41" as="geometry">
            <mxRectangle width="150" height="41" as="alternateBounds" />
          </mxGeometry>
        </mxCell>
        <mxCell id="gPpcPWvzjdFYE0nj1UgD-50" value="" style="shape=tableRow;horizontal=0;startSize=0;swimlaneHead=0;swimlaneBody=0;strokeColor=inherit;top=0;left=0;bottom=0;right=0;collapsible=0;dropTarget=0;fillColor=none;points=[[0,0.5],[1,0.5]];portConstraint=eastwest;" vertex="1" parent="gPpcPWvzjdFYE0nj1UgD-29">
          <mxGeometry y="208" width="400" height="42" as="geometry" />
        </mxCell>
        <mxCell id="gPpcPWvzjdFYE0nj1UgD-51" value="" style="shape=partialRectangle;html=1;whiteSpace=wrap;connectable=0;strokeColor=inherit;overflow=hidden;fillColor=none;top=0;left=0;bottom=0;right=0;pointerEvents=1;" vertex="1" parent="gPpcPWvzjdFYE0nj1UgD-50">
          <mxGeometry width="60" height="42" as="geometry">
            <mxRectangle width="60" height="42" as="alternateBounds" />
          </mxGeometry>
        </mxCell>
        <mxCell id="gPpcPWvzjdFYE0nj1UgD-52" value="" style="shape=partialRectangle;html=1;whiteSpace=wrap;connectable=0;strokeColor=inherit;overflow=hidden;fillColor=none;top=0;left=0;bottom=0;right=0;pointerEvents=1;" vertex="1" parent="gPpcPWvzjdFYE0nj1UgD-50">
          <mxGeometry x="60" width="190" height="42" as="geometry">
            <mxRectangle width="190" height="42" as="alternateBounds" />
          </mxGeometry>
        </mxCell>
        <mxCell id="gPpcPWvzjdFYE0nj1UgD-53" value="" style="shape=partialRectangle;html=1;whiteSpace=wrap;connectable=0;strokeColor=inherit;overflow=hidden;fillColor=none;top=0;left=0;bottom=0;right=0;pointerEvents=1;" vertex="1" parent="gPpcPWvzjdFYE0nj1UgD-50">
          <mxGeometry x="250" width="150" height="42" as="geometry">
            <mxRectangle width="150" height="42" as="alternateBounds" />
          </mxGeometry>
        </mxCell>
        <mxCell id="v9HxHDBjHFfch7cdZsZy-1" value="&lt;b&gt;Step n.&lt;/b&gt;" style="text;html=1;align=center;verticalAlign=middle;whiteSpace=wrap;rounded=0;" vertex="1" parent="1">
          <mxGeometry x="290" y="490" width="40" height="40" as="geometry" />
        </mxCell>
        <mxCell id="4udrUY8mznN_dl5W3BWp-1" value="&lt;b&gt;Amministratore&lt;/b&gt;" style="text;html=1;align=center;verticalAlign=middle;whiteSpace=wrap;rounded=0;" vertex="1" parent="1">
          <mxGeometry x="373.5" y="490" width="130" height="40" as="geometry" />
        </mxCell>
        <mxCell id="ZrvrdRzg59M1FcIyTT7X-1" value="&lt;b&gt;Sistema&lt;/b&gt;" style="text;html=1;align=center;verticalAlign=middle;whiteSpace=wrap;rounded=0;" vertex="1" parent="1">
          <mxGeometry x="535" y="490" width="130" height="40" as="geometry" />
        </mxCell>
        <mxCell id="GT3fYSpd6wuun7rYe9sN-1" value="&lt;b&gt;1&lt;/b&gt;" style="text;html=1;align=center;verticalAlign=middle;whiteSpace=wrap;rounded=0;" vertex="1" parent="1">
          <mxGeometry x="287.5" y="540" width="45" height="30" as="geometry" />
        </mxCell>
        <mxCell id="GT3fYSpd6wuun7rYe9sN-2" value="&lt;b&gt;2&lt;/b&gt;" style="text;html=1;align=center;verticalAlign=middle;whiteSpace=wrap;rounded=0;" vertex="1" parent="1">
          <mxGeometry x="287.5" y="580" width="45" height="30" as="geometry" />
        </mxCell>
        <mxCell id="GT3fYSpd6wuun7rYe9sN-3" value="&lt;b&gt;3&lt;/b&gt;" style="text;html=1;align=center;verticalAlign=middle;whiteSpace=wrap;rounded=0;" vertex="1" parent="1">
          <mxGeometry x="287.5" y="620" width="45" height="30" as="geometry" />
        </mxCell>
        <mxCell id="GT3fYSpd6wuun7rYe9sN-4" value="&lt;b&gt;4&lt;/b&gt;" style="text;html=1;align=center;verticalAlign=middle;whiteSpace=wrap;rounded=0;" vertex="1" parent="1">
          <mxGeometry x="287.5" y="660" width="45" height="30" as="geometry" />
        </mxCell>
        <mxCell id="GT3fYSpd6wuun7rYe9sN-5" value="&lt;b&gt;5&lt;/b&gt;" style="text;html=1;align=center;verticalAlign=middle;whiteSpace=wrap;rounded=0;" vertex="1" parent="1">
          <mxGeometry x="287.5" y="700" width="45" height="30" as="geometry" />
        </mxCell>
        <mxCell id="GT3fYSpd6wuun7rYe9sN-8" value="Clicca il bottone &quot;Modifica&quot; in MO-18" style="text;html=1;align=center;verticalAlign=middle;whiteSpace=wrap;rounded=0;" vertex="1" parent="1">
          <mxGeometry x="348.5" y="530" width="180" height="40" as="geometry" />
        </mxCell>
        <mxCell id="GT3fYSpd6wuun7rYe9sN-9" value="Mostra MO-19" style="text;html=1;align=center;verticalAlign=middle;whiteSpace=wrap;rounded=0;" vertex="1" parent="1">
          <mxGeometry x="543.25" y="575" width="113.5" height="40" as="geometry" />
        </mxCell>
        <mxCell id="GT3fYSpd6wuun7rYe9sN-10" value="Modifica il campo &quot;password&quot; e clicca il bottone&quot;Salva&quot;" style="text;html=1;align=center;verticalAlign=middle;whiteSpace=wrap;rounded=0;" vertex="1" parent="1">
          <mxGeometry x="340" y="615" width="180" height="40" as="geometry" />
        </mxCell>
        <mxCell id="UHiua398ELAfF48zLnsL-1" value="Mostra MO-?" style="text;html=1;align=center;verticalAlign=middle;whiteSpace=wrap;rounded=0;" vertex="1" parent="1">
          <mxGeometry x="543.25" y="655" width="113.5" height="40" as="geometry" />
        </mxCell>
        <mxCell id="UHiua398ELAfF48zLnsL-2" value="Clicca il bottone &quot;OK&quot;" style="text;html=1;align=center;verticalAlign=middle;whiteSpace=wrap;rounded=0;" vertex="1" parent="1">
          <mxGeometry x="340" y="700" width="180" height="40" as="geometry" />
        </mxCell>
        <mxCell id="UHiua398ELAfF48zLnsL-50" value="" style="endArrow=none;html=1;rounded=0;exitX=0;exitY=1;exitDx=0;exitDy=0;entryX=0.15;entryY=-0.004;entryDx=0;entryDy=0;entryPerimeter=0;" edge="1" parent="1" source="UHiua398ELAfF48zLnsL-2" target="DcksnPaXmPu4GkgFv2K7-3">
          <mxGeometry width="50" height="50" relative="1" as="geometry">
            <mxPoint x="390" y="720" as="sourcePoint" />
            <mxPoint x="440" y="670" as="targetPoint" />
          </mxGeometry>
        </mxCell>
        <mxCell id="UHiua398ELAfF48zLnsL-51" value="" style="endArrow=none;html=1;rounded=0;exitX=0.625;exitY=0.989;exitDx=0;exitDy=0;entryX=0.625;entryY=0.005;entryDx=0;entryDy=0;entryPerimeter=0;exitPerimeter=0;" edge="1" parent="1" source="gPpcPWvzjdFYE0nj1UgD-50" target="DcksnPaXmPu4GkgFv2K7-3">
          <mxGeometry width="50" height="50" relative="1" as="geometry">
            <mxPoint x="528.5" y="740" as="sourcePoint" />
            <mxPoint x="528.5" y="780" as="targetPoint" />
          </mxGeometry>
        </mxCell>
        <mxCell id="UHiua398ELAfF48zLnsL-52" value="&lt;b&gt;6&lt;/b&gt;" style="text;html=1;align=center;verticalAlign=middle;whiteSpace=wrap;rounded=0;" vertex="1" parent="1">
          <mxGeometry x="287.5" y="740" width="45" height="30" as="geometry" />
        </mxCell>
        <mxCell id="UHiua398ELAfF48zLnsL-53" value="Mostra MO-18" style="text;html=1;align=center;verticalAlign=middle;whiteSpace=wrap;rounded=0;" vertex="1" parent="1">
          <mxGeometry x="543.25" y="740" width="113.5" height="40" as="geometry" />
        </mxCell>
        <mxCell id="DcksnPaXmPu4GkgFv2K7-1" value="&lt;b&gt;EXTENSION A:&lt;/b&gt;&lt;div&gt;&lt;b&gt;L&#39;UTENTE ANNULLA LA PROCEDURA&amp;nbsp;&lt;/b&gt;&lt;/div&gt;" style="text;html=1;align=center;verticalAlign=middle;whiteSpace=wrap;rounded=0;" vertex="1" parent="1">
          <mxGeometry x="120" y="790" width="130" height="70" as="geometry" />
        </mxCell>
        <mxCell id="DcksnPaXmPu4GkgFv2K7-2" value="" style="shape=table;startSize=0;container=1;collapsible=0;childLayout=tableLayout;" vertex="1" parent="1">
          <mxGeometry x="280" y="780" width="400" height="100" as="geometry" />
        </mxCell>
        <mxCell id="DcksnPaXmPu4GkgFv2K7-3" value="" style="shape=tableRow;horizontal=0;startSize=0;swimlaneHead=0;swimlaneBody=0;strokeColor=inherit;top=0;left=0;bottom=0;right=0;collapsible=0;dropTarget=0;fillColor=none;points=[[0,0.5],[1,0.5]];portConstraint=eastwest;" vertex="1" parent="DcksnPaXmPu4GkgFv2K7-2">
          <mxGeometry width="400" height="50" as="geometry" />
        </mxCell>
        <mxCell id="DcksnPaXmPu4GkgFv2K7-4" value="" style="shape=partialRectangle;html=1;whiteSpace=wrap;connectable=0;strokeColor=inherit;overflow=hidden;fillColor=none;top=0;left=0;bottom=0;right=0;pointerEvents=1;" vertex="1" parent="DcksnPaXmPu4GkgFv2K7-3">
          <mxGeometry width="60" height="50" as="geometry">
            <mxRectangle width="60" height="50" as="alternateBounds" />
          </mxGeometry>
        </mxCell>
        <mxCell id="DcksnPaXmPu4GkgFv2K7-5" value="" style="shape=partialRectangle;html=1;whiteSpace=wrap;connectable=0;strokeColor=inherit;overflow=hidden;fillColor=none;top=0;left=0;bottom=0;right=0;pointerEvents=1;" vertex="1" parent="DcksnPaXmPu4GkgFv2K7-3">
          <mxGeometry x="60" width="190" height="50" as="geometry">
            <mxRectangle width="190" height="50" as="alternateBounds" />
          </mxGeometry>
        </mxCell>
        <mxCell id="DcksnPaXmPu4GkgFv2K7-6" value="" style="shape=partialRectangle;html=1;whiteSpace=wrap;connectable=0;strokeColor=inherit;overflow=hidden;fillColor=none;top=0;left=0;bottom=0;right=0;pointerEvents=1;" vertex="1" parent="DcksnPaXmPu4GkgFv2K7-3">
          <mxGeometry x="250" width="150" height="50" as="geometry">
            <mxRectangle width="150" height="50" as="alternateBounds" />
          </mxGeometry>
        </mxCell>
        <mxCell id="DcksnPaXmPu4GkgFv2K7-7" value="" style="shape=tableRow;horizontal=0;startSize=0;swimlaneHead=0;swimlaneBody=0;strokeColor=inherit;top=0;left=0;bottom=0;right=0;collapsible=0;dropTarget=0;fillColor=none;points=[[0,0.5],[1,0.5]];portConstraint=eastwest;" vertex="1" parent="DcksnPaXmPu4GkgFv2K7-2">
          <mxGeometry y="50" width="400" height="50" as="geometry" />
        </mxCell>
        <mxCell id="DcksnPaXmPu4GkgFv2K7-8" value="" style="shape=partialRectangle;html=1;whiteSpace=wrap;connectable=0;strokeColor=inherit;overflow=hidden;fillColor=none;top=0;left=0;bottom=0;right=0;pointerEvents=1;" vertex="1" parent="DcksnPaXmPu4GkgFv2K7-7">
          <mxGeometry width="60" height="50" as="geometry">
            <mxRectangle width="60" height="50" as="alternateBounds" />
          </mxGeometry>
        </mxCell>
        <mxCell id="DcksnPaXmPu4GkgFv2K7-9" value="" style="shape=partialRectangle;html=1;whiteSpace=wrap;connectable=0;strokeColor=inherit;overflow=hidden;fillColor=none;top=0;left=0;bottom=0;right=0;pointerEvents=1;" vertex="1" parent="DcksnPaXmPu4GkgFv2K7-7">
          <mxGeometry x="60" width="190" height="50" as="geometry">
            <mxRectangle width="190" height="50" as="alternateBounds" />
          </mxGeometry>
        </mxCell>
        <mxCell id="DcksnPaXmPu4GkgFv2K7-10" value="" style="shape=partialRectangle;html=1;whiteSpace=wrap;connectable=0;strokeColor=inherit;overflow=hidden;fillColor=none;top=0;left=0;bottom=0;right=0;pointerEvents=1;" vertex="1" parent="DcksnPaXmPu4GkgFv2K7-7">
          <mxGeometry x="250" width="150" height="50" as="geometry">
            <mxRectangle width="150" height="50" as="alternateBounds" />
          </mxGeometry>
        </mxCell>
        <mxCell id="DcksnPaXmPu4GkgFv2K7-11" value="&lt;b&gt;3a&lt;/b&gt;" style="text;html=1;align=center;verticalAlign=middle;whiteSpace=wrap;rounded=0;" vertex="1" parent="1">
          <mxGeometry x="285" y="790" width="45" height="30" as="geometry" />
        </mxCell>
        <mxCell id="DcksnPaXmPu4GkgFv2K7-12" value="Clicca il bottone &quot;Annulla&quot;" style="text;html=1;align=center;verticalAlign=middle;whiteSpace=wrap;rounded=0;" vertex="1" parent="1">
          <mxGeometry x="340" y="785" width="180" height="40" as="geometry" />
        </mxCell>
        <mxCell id="DcksnPaXmPu4GkgFv2K7-13" value="Mostra MO-18 e termina UC" style="text;html=1;align=center;verticalAlign=middle;whiteSpace=wrap;rounded=0;" vertex="1" parent="1">
          <mxGeometry x="543.25" y="830" width="113.5" height="40" as="geometry" />
        </mxCell>
        <mxCell id="DcksnPaXmPu4GkgFv2K7-14" value="Aggiungere schermata di successo" style="shape=note;whiteSpace=wrap;html=1;backgroundOutline=1;darkOpacity=0.05;" vertex="1" parent="1">
          <mxGeometry x="730" y="627.5" width="80" height="100" as="geometry" />
        </mxCell>
        <mxCell id="DcksnPaXmPu4GkgFv2K7-15" value="" style="endArrow=none;html=1;rounded=0;entryX=0;entryY=0.5;entryDx=0;entryDy=0;entryPerimeter=0;exitX=1;exitY=0.5;exitDx=0;exitDy=0;" edge="1" parent="1" source="gPpcPWvzjdFYE0nj1UgD-46" target="DcksnPaXmPu4GkgFv2K7-14">
          <mxGeometry width="50" height="50" relative="1" as="geometry">
            <mxPoint x="530" y="640" as="sourcePoint" />
            <mxPoint x="580" y="590" as="targetPoint" />
          </mxGeometry>
        </mxCell>
        <mxCell id="DcksnPaXmPu4GkgFv2K7-16" value="&lt;b&gt;4a&lt;/b&gt;" style="text;html=1;align=center;verticalAlign=middle;whiteSpace=wrap;rounded=0;" vertex="1" parent="1">
          <mxGeometry x="285" y="835" width="45" height="30" as="geometry" />
        </mxCell>
      </root>
    </mxGraphModel>
  </diagram>
</mxfile>
